<svg width="320" height="220" viewBox="0 0 320 220" fill="none" xmlns="http://www.w3.org/2000/svg">
<path d="M27.7856 96.8582C23.3562 98.2099 19.2104 101.483 18.1039 106.023C16.8383 111.242 19.7567 116.502 20.1785 121.86C21.5409 139.415 -3.1821 151.801 0.344817 169.045C1.74521 175.902 7.40556 180.946 12.9829 185.113C21.9178 191.766 31.8312 197.645 42.8096 199.304C59.4725 201.826 76.8823 194.414 93.0785 199.098C106.142 202.877 116.138 213.953 129.112 218.04C138.987 221.152 149.627 219.926 159.886 218.665C165.418 217.988 171.213 217.205 175.677 213.852C183.976 207.61 184.498 195.284 190.055 186.45C198.637 172.828 217.454 170.153 233.232 172.8C249.01 175.448 264.331 181.966 280.316 181.435C283.732 181.319 287.232 180.851 290.212 179.157C293.836 177.1 296.284 173.474 298.449 169.887C311.977 147.382 319.403 121.676 319.98 95.3527C320.073 90.8295 319.914 86.1106 317.809 82.1182C315.146 77.0675 309.825 74.0462 304.527 72.0133C291.806 67.1233 277.754 66.3235 265.289 60.8082C253.266 55.4886 243.529 46.1591 233.059 38.1639C212.194 22.2617 188.01 11.382 162.351 6.35431C156.338 5.1807 150.097 4.34241 144.122 5.69765C137.238 7.25896 131.304 11.5936 125.969 16.2601C111.775 28.6738 100.399 43.99 87.3178 57.5948C78.2942 66.977 68.4683 75.5364 57.9545 83.1731C53.1137 86.6974 47.9685 90.8819 42.5744 93.4875C37.6368 95.8697 33.0068 95.2689 27.7856 96.8582Z" fill="#F9F9F9"/>
<path opacity="0.2" d="M107.354 25.5792L107.167 25.5322L48.0432 149.314L256.468 165.403L256.703 165.421L264.34 64.9385L264.355 64.741L107.354 25.5792ZM167.228 105.182L48.8635 148.686L107.342 26.2562L167.228 105.182ZM167.575 105.555L255.617 164.865L49.4959 148.954L167.575 105.555ZM167.684 105.006L107.887 26.1956L263.361 64.9761L167.684 105.006ZM256.283 164.747L168.099 105.341L263.842 65.2845L256.283 164.747Z" fill="#2C4981"/>
<path d="M290.978 67.0313C290.79 71.7965 289.45 76.4453 287.075 80.5804C284.699 84.7154 281.357 88.2138 277.335 90.7765C273.313 93.3393 268.731 94.8902 263.979 95.2968C259.228 95.7033 254.448 94.9534 250.05 93.1111C247.986 92.2465 246.03 91.1473 244.218 89.8351C240.755 87.3353 237.874 84.1171 235.769 80.4007V80.3974C233.526 76.4224 232.235 71.9813 231.997 67.4231C231.759 62.8649 232.582 58.3136 234.4 54.127C236.218 49.9403 238.983 46.2323 242.476 43.2942C245.969 40.3561 250.096 38.268 254.532 37.1939C258.968 36.1199 263.593 36.0891 268.043 37.1041C272.493 38.1191 276.647 40.1521 280.179 43.0435C283.711 45.9349 286.524 49.6059 288.398 53.768C290.272 57.9301 291.155 62.47 290.978 67.031L290.978 67.0313Z" fill="white"/>
<path opacity="0.09" d="M290.978 67.0313C290.79 71.7965 289.45 76.4453 287.075 80.5804C284.699 84.7154 281.357 88.2138 277.335 90.7765C273.313 93.3393 268.731 94.8902 263.979 95.2968C259.228 95.7033 254.448 94.9534 250.05 93.1111C247.986 92.2465 246.03 91.1473 244.218 89.8351C240.755 87.3353 237.874 84.1171 235.769 80.4007V80.3974C233.526 76.4224 232.235 71.9813 231.997 67.4231C231.759 62.8649 232.582 58.3136 234.4 54.127C236.218 49.9403 238.983 46.2323 242.476 43.2942C245.969 40.3561 250.096 38.268 254.532 37.1939C258.968 36.1199 263.593 36.0891 268.043 37.1041C272.493 38.1191 276.647 40.1521 280.179 43.0435C283.711 45.9349 286.524 49.6059 288.398 53.768C290.272 57.9301 291.155 62.47 290.978 67.031L290.978 67.0313Z" fill="#2C4981"/>
<path d="M268.459 43.4043C268.459 43.4043 275.517 43.4907 273.083 53.2172L272.42 53.2496L271.075 53.3151" fill="#0C0C0C"/>
<path d="M260.578 63.4218C260.611 63.4188 260.741 69.4856 267.793 69.2307C272.675 69.055 274.611 63.9577 274.723 63.9619C274.202 63.8301 273.324 63.633 273.096 63.5001C272.346 63.0587 271.414 62.5933 271.225 61.0951C271.116 60.2315 271.527 55.8519 271.487 54.9811L263.95 56.3588C263.983 58.1963 264.549 62.4745 261.959 63.1273C261.528 63.2353 261.064 63.3319 260.578 63.4218Z" fill="#FFCAB6"/>
<path opacity="0.52" d="M263.647 61.4533C263.779 61.0806 263.869 60.6947 263.917 60.3023C264.034 59.4072 264.053 58.502 263.973 57.6029C265.499 57.4569 266.954 56.8856 268.173 55.9539C268.291 56.4707 268.968 58.7404 268.736 59.2191C268.302 60.1244 266.367 61.559 263.647 61.4533Z" fill="#0C0C0C"/>
<path d="M265.358 60.3814C268.312 60.17 271.876 58.3713 272 54.3677L272.112 50.756C272.236 46.7532 270.233 43.4431 266.465 43.3265C262.696 43.2091 259.779 46.3677 259.655 50.3705L259.605 51.9696C259.598 52.5191 259.628 53.0685 259.695 53.6139C259.862 55.0563 260.122 57.2494 261.072 58.7469C261.968 60.1606 263.47 60.516 265.358 60.3814Z" fill="#FFCAB6"/>
<path d="M271.729 55.5809C272.874 55.6161 273.84 54.4195 273.876 53.2743C273.911 52.1291 273.002 51.4686 271.857 51.4331L271.243 52.1822L270.744 55.5504L271.729 55.5809Z" fill="#FFCAB6"/>
<path d="M259.849 54.8228C260.056 55.0681 260.321 55.2578 260.619 55.3746C260.918 55.4914 261.242 55.5315 261.56 55.4914C262.241 55.4056 262.693 55.6852 263.262 55.629C263.739 55.582 263.822 55.3615 264.637 55.3133C267.781 55.127 270.141 54.9288 270.294 50.9825L272.296 49.205C272.296 49.205 273.19 60.1405 267.275 61.5941C263.641 62.4867 260.232 62.1604 259.793 58.747C259.437 55.9734 259.849 54.8228 259.849 54.8228Z" fill="#0C0C0C"/>
<path d="M261.339 52.5389C261.595 52.5389 261.803 52.331 261.803 52.0745C261.803 51.818 261.595 51.6101 261.339 51.6101C261.082 51.6101 260.874 51.818 260.874 52.0745C260.874 52.331 261.082 52.5389 261.339 52.5389Z" fill="#0C0C0C"/>
<path d="M265.488 52.4525C265.744 52.4525 265.952 52.2446 265.952 51.9881C265.952 51.7316 265.744 51.5237 265.488 51.5237C265.231 51.5237 265.023 51.7316 265.023 51.9881C265.023 52.2446 265.231 52.4525 265.488 52.4525Z" fill="#0C0C0C"/>
<path d="M270.622 53.719C270.622 53.719 270.339 48.0468 268.627 47.6656C267.487 47.4117 264.683 48.9841 262.122 48.4471C261.002 48.2122 259.929 48.4706 259.811 49.0001C259.764 49.2097 258.878 47.3513 260.68 45.09C262.115 43.2897 266.782 42.7832 268.858 43.4198C274.607 45.1831 272.089 51.687 272.089 51.687L271.795 53.6353L270.622 53.719Z" fill="#0C0C0C"/>
<path d="M273.235 49.1452C274.927 49.1452 276.298 47.7735 276.298 46.0815C276.298 44.3895 274.927 43.0178 273.235 43.0178C271.543 43.0178 270.171 44.3895 270.171 46.0815C270.171 47.7735 271.543 49.1452 273.235 49.1452Z" fill="#0C0C0C"/>
<g opacity="0.52">
<path d="M263.318 55.4466H263.311C262.942 55.436 262.324 55.3773 262.331 55.1013C262.338 54.8725 263.034 52.4205 263.113 52.1414C263.12 52.1174 263.136 52.0971 263.158 52.085C263.18 52.0729 263.206 52.0699 263.23 52.0767C263.254 52.0835 263.274 52.0996 263.286 52.1214C263.298 52.1432 263.301 52.1689 263.294 52.1929C262.985 53.2789 262.524 54.9509 262.519 55.1057C262.554 55.172 262.934 55.2467 263.316 55.2577C263.341 55.2575 263.365 55.2671 263.383 55.2845C263.401 55.3019 263.411 55.3257 263.411 55.3506C263.411 55.3756 263.402 55.3996 263.384 55.4174C263.367 55.4352 263.343 55.4454 263.318 55.4457V55.4466Z" fill="#0C0C0C"/>
</g>
<path d="M262.195 50.4966C261.813 50.3837 261.409 50.3756 261.023 50.4731C260.833 50.5198 260.652 50.5947 260.484 50.6954C260.318 50.7941 260.166 50.9133 260.03 51.0503C260.006 51.0714 259.992 51.1011 259.99 51.1327C259.988 51.1643 259.999 51.1953 260.02 51.2189C260.041 51.2424 260.071 51.2567 260.103 51.2584C260.134 51.2601 260.165 51.2493 260.189 51.2281L260.196 51.222C260.323 51.1077 260.464 51.0097 260.615 50.9305C260.764 50.8516 260.923 50.7957 261.089 50.7647C261.416 50.7008 261.754 50.7244 262.068 50.833L262.08 50.8375C262.103 50.8461 262.126 50.8502 262.15 50.8495C262.174 50.8489 262.197 50.8435 262.219 50.8337C262.241 50.8238 262.26 50.8098 262.277 50.7924C262.293 50.7749 262.305 50.7544 262.314 50.732C262.322 50.7097 262.326 50.6859 262.324 50.6621C262.323 50.6383 262.318 50.6149 262.307 50.5934C262.297 50.5718 262.283 50.5525 262.265 50.5366C262.247 50.5207 262.227 50.5085 262.204 50.5006L262.195 50.4966Z" fill="#0C0C0C"/>
<path d="M264.931 50.8335C265.233 50.6945 265.567 50.6381 265.899 50.6702C266.067 50.6849 266.231 50.725 266.387 50.7893C266.545 50.8534 266.695 50.9371 266.832 51.0385L266.839 51.0437C266.865 51.0604 266.896 51.0666 266.926 51.0611C266.956 51.0557 266.983 51.0389 267.001 51.0143C267.019 50.9897 267.027 50.9591 267.023 50.9289C267.019 50.8986 267.004 50.8709 266.98 50.8515C266.832 50.7284 266.668 50.6246 266.493 50.5424C266.317 50.4585 266.129 50.4016 265.935 50.3735C265.542 50.3142 265.14 50.3619 264.772 50.5114C264.728 50.5301 264.694 50.5651 264.676 50.6088C264.659 50.6525 264.659 50.7014 264.677 50.745C264.695 50.7885 264.73 50.8232 264.773 50.8415C264.817 50.8598 264.865 50.8603 264.909 50.8428L264.918 50.8391L264.931 50.8335Z" fill="#0C0C0C"/>
<path d="M283.745 78.5704C283.483 80.5538 283.226 83.278 282.997 86.0948C282.103 87.0469 281.146 87.9389 280.134 88.7648C279.49 89.2875 278.826 89.7845 278.141 90.2555C274.438 92.7833 270.209 94.4361 265.774 95.0891C261.338 95.7421 256.812 95.3782 252.537 94.0249C252.479 91.4085 252.4 87.8792 252.321 84.6459C252.23 80.9162 252.139 77.5768 252.09 76.4795C251.887 72.1247 250.733 69.2192 251.606 66.8433C251.867 66.14 252.286 65.5063 252.832 64.9915C254.865 63.0016 259.915 63.0469 261.941 63.1256C261.976 63.127 261.35 67.8019 268.015 67.7456C272.913 67.7054 273.281 63.5656 273.281 63.5656C273.281 63.5656 275.695 63.8167 277.298 64.0951C279.92 64.5543 281.625 65.516 282.951 66.9523C284.189 68.2915 284.919 69.7132 283.745 78.5704Z" fill="#2C4981"/>
<path d="M244.564 63.5866L244.766 58.5983C244.77 58.4886 244.752 58.3791 244.712 58.2769C244.672 58.1746 244.611 58.0819 244.533 58.0045C244.455 57.9272 244.362 57.8669 244.259 57.8276C244.157 57.7882 244.047 57.7707 243.938 57.7761C243.736 57.7924 243.547 57.8831 243.408 58.0307C243.269 58.1783 243.19 58.3722 243.186 58.5748L243.143 59.6445L241.734 56.2189C241.584 55.8353 241.155 55.4603 240.735 55.657C240.569 55.722 240.43 55.8415 240.34 55.996C240.251 56.1504 240.216 56.3307 240.242 56.5073C240.238 56.5078 240.234 56.5087 240.23 56.5099C240.228 56.5114 240.225 56.5131 240.223 56.5151L239.992 55.9236C239.949 55.814 239.882 55.7154 239.796 55.6349C239.71 55.5544 239.608 55.4941 239.496 55.4583C239.383 55.4226 239.265 55.4123 239.148 55.4282C239.032 55.4441 238.92 55.4858 238.822 55.5503C238.669 55.655 238.556 55.809 238.503 55.9866C238.45 56.1641 238.46 56.3545 238.531 56.5259L238.629 56.7775C238.623 56.7837 238.618 56.791 238.615 56.7988C238.509 56.6444 238.352 56.5326 238.171 56.4834C237.99 56.4342 237.798 56.4508 237.628 56.5303C237.445 56.623 237.304 56.7813 237.232 56.9737C237.161 57.166 237.164 57.3782 237.242 57.5679L237.487 58.1933C237.477 58.1869 237.466 58.1828 237.455 58.1815C237.443 58.1802 237.431 58.1817 237.42 58.1858C237.408 58.1914 237.397 58.2005 237.389 58.2121C237.257 58.1005 237.091 58.0356 236.918 58.0273C236.745 58.0191 236.574 58.0679 236.432 58.1663C236.284 58.2727 236.176 58.4259 236.127 58.601C236.077 58.776 236.088 58.9628 236.157 59.131L238.219 64.4069C238.507 65.1449 239.01 65.7801 239.661 66.2308C240.313 66.6816 241.085 66.9274 241.877 66.9368C242.56 66.9449 243.22 66.6863 243.715 66.2159C244.211 65.7455 244.504 65.1004 244.531 64.4177L244.564 63.5866Z" fill="#FFCAB6"/>
<g opacity="0.2">
<path d="M241.619 59.9053C241.601 59.9122 241.581 59.9118 241.564 59.9042C241.546 59.8967 241.532 59.8825 241.525 59.8648L240.19 56.605C240.186 56.596 240.183 56.5863 240.183 56.5764C240.183 56.5665 240.184 56.5566 240.188 56.5474C240.192 56.5382 240.197 56.5297 240.204 56.5227C240.211 56.5156 240.219 56.51 240.229 56.5063C240.238 56.5025 240.248 56.5007 240.257 56.5009C240.267 56.501 240.277 56.5032 240.286 56.5073C240.295 56.5114 240.303 56.5172 240.31 56.5245C240.317 56.5319 240.322 56.5405 240.325 56.5498L241.66 59.8096C241.664 59.8185 241.666 59.828 241.666 59.8376C241.666 59.8472 241.664 59.8567 241.66 59.8655C241.656 59.8743 241.651 59.8824 241.644 59.8891C241.637 59.8958 241.629 59.9012 241.62 59.9048L241.619 59.9053Z" fill="#0C0C0C"/>
</g>
<g opacity="0.2">
<path d="M240.198 60.5339C240.18 60.5408 240.16 60.5405 240.142 60.5329C240.125 60.5252 240.111 60.511 240.104 60.4932L238.614 56.8552C238.607 56.8374 238.607 56.8176 238.615 56.8C238.622 56.7825 238.636 56.7685 238.654 56.7612C238.672 56.7549 238.691 56.7554 238.709 56.7628C238.726 56.7701 238.74 56.7837 238.748 56.8009L240.238 60.439C240.245 60.4569 240.245 60.477 240.237 60.4948C240.23 60.5126 240.216 60.5268 240.198 60.5341V60.5339Z" fill="#0C0C0C"/>
</g>
<g opacity="0.2">
<path d="M238.662 61.2233C238.644 61.2303 238.624 61.2299 238.607 61.2223C238.589 61.2147 238.575 61.2005 238.568 61.1827L237.38 58.2809C237.372 58.263 237.372 58.2429 237.38 58.2251C237.387 58.2073 237.402 58.1932 237.42 58.1859C237.437 58.1785 237.457 58.1786 237.475 58.1861C237.493 58.1935 237.507 58.2078 237.515 58.2257L238.704 61.1268C238.711 61.1447 238.711 61.1648 238.703 61.1826C238.696 61.2005 238.682 61.2146 238.664 61.2219L238.662 61.2233Z" fill="#0C0C0C"/>
</g>
<path d="M261.077 71.4071L248.936 90.0721C248.495 90.7505 247.903 91.3187 247.208 91.7329C246.173 91.1623 245.175 90.5285 244.218 89.835C242.179 88.3638 240.337 86.638 238.735 84.6995L236.185 64.9285L246.39 63.2933L247.554 72.81L252.216 65.6422L261.077 71.4071Z" fill="#2C4981"/>
<path d="M262.5 56.4651C263.613 56.539 264.72 56.2397 265.644 55.6144C265.676 55.5929 265.714 55.581 265.753 55.58C265.791 55.5791 265.829 55.5891 265.862 55.609C265.896 55.6289 265.922 55.6578 265.94 55.6923C265.957 55.7268 265.964 55.7656 265.96 55.804C265.886 56.4618 265.561 57.6716 264.181 57.8257C263.29 57.925 262.644 57.2407 262.318 56.7857C262.296 56.7542 262.283 56.717 262.281 56.6783C262.279 56.6397 262.288 56.6013 262.307 56.5676C262.326 56.5339 262.354 56.5064 262.388 56.4882C262.423 56.47 262.461 56.462 262.5 56.4651Z" fill="white"/>
<path d="M287.037 80.6682C285.243 83.7613 282.904 86.5043 280.134 88.7648C279.49 89.2876 278.826 89.7845 278.141 90.2556L273.4 72.2166L284.078 69.4078L287.037 80.6682Z" fill="#2C4981"/>
<path d="M278.245 90.1852C278.211 90.2072 278.175 90.2321 278.141 90.2556C278.108 90.2791 278.074 90.3026 278.04 90.3245L274.426 76.5823L274.654 76.5228L278.245 90.1852Z" fill="#0C0C0C"/>
<path d="M252.349 85.4956C252.32 85.4944 252.292 85.4822 252.271 85.4615C252.251 85.4407 252.238 85.4129 252.237 85.3835L252.004 80.2625C252.003 80.2314 252.014 80.2009 252.035 80.1779C252.056 80.1549 252.085 80.1412 252.116 80.1398C252.147 80.1384 252.178 80.1494 252.201 80.1704C252.224 80.1915 252.237 80.2208 252.239 80.2519L252.472 85.373C252.473 85.404 252.462 85.4344 252.441 85.4574C252.42 85.4804 252.391 85.4941 252.36 85.4956H252.349Z" fill="#0C0C0C"/>
<path d="M164.524 132.883C181.145 132.883 194.619 119.409 194.619 102.788C194.619 86.1667 181.145 72.6925 164.524 72.6925C147.903 72.6925 134.428 86.1667 134.428 102.788C134.428 119.409 147.903 132.883 164.524 132.883Z" fill="white"/>
<path opacity="0.09" d="M194.62 102.787C194.62 108.739 192.855 114.558 189.548 119.507C186.241 124.456 181.541 128.313 176.041 130.591C170.542 132.869 164.491 133.465 158.653 132.304C152.816 131.143 147.453 128.276 143.244 124.067C139.035 119.859 136.169 114.496 135.008 108.658C133.847 102.82 134.443 96.7693 136.721 91.2702C138.998 85.7711 142.856 81.0709 147.805 77.764C152.754 74.4571 158.572 72.6921 164.525 72.6921C168.481 72.6775 172.401 73.4459 176.059 74.9532C179.717 76.4604 183.04 78.6766 185.838 81.4741C188.635 84.2716 190.851 87.595 192.359 91.2529C193.866 94.9108 194.634 98.8308 194.62 102.787Z" fill="#2C4981"/>
<path d="M151.202 85.0371C151.202 85.0371 150.9 89.5803 149.878 91.2286C146.935 95.9738 146.083 101.312 149.029 104.102C151.976 106.891 170.771 106.93 172.195 100.515C173.393 95.114 170.821 94.5333 170.196 90.0783C169.912 88.0625 169.133 83.8356 169.133 83.8356" fill="#0A0A0A"/>
<path d="M167.33 99.5734C167.298 99.5691 166.938 105.543 159.998 105.023C155.193 104.663 153.48 99.5659 153.37 99.5659C153.888 99.4559 154.76 99.2957 154.991 99.1731C155.748 98.7665 156.684 98.3436 156.927 96.8743C157.068 96.0286 156.83 91.6955 156.904 90.8387L164.279 92.4848C164.176 94.2936 163.454 98.489 165.982 99.2314C166.402 99.3533 166.855 99.4663 167.33 99.5734Z" fill="#FFCAB6"/>
<path opacity="0.5" d="M164.381 97.5163C164.265 97.144 164.191 96.7601 164.159 96.3716C164.078 95.4851 164.094 94.5924 164.207 93.7094C162.708 93.5072 161.296 92.8887 160.131 91.9241C159.994 92.4298 159.241 94.6396 159.45 95.1205C159.845 96.0284 161.696 97.5163 164.381 97.5163Z" fill="#0C0C0C"/>
<path d="M163.427 95.6552C160.519 95.9371 156.757 94.7733 155.978 90.9013L155.275 87.4075C154.496 83.5355 155.898 79.9872 159.543 79.2536C163.189 78.5197 166.546 81.1094 167.325 84.9823L167.636 86.529C167.935 88.0148 168.615 95.1532 163.427 95.6552Z" fill="#FFCAB6"/>
<path opacity="0.1" d="M161.579 90.5819C162.057 90.5249 162.411 90.194 162.369 89.843C162.327 89.4919 161.905 89.2536 161.427 89.3107C160.949 89.3678 160.595 89.6986 160.637 90.0497C160.678 90.4007 161.1 90.639 161.579 90.5819Z" fill="#0C0C0C"/>
<path opacity="0.1" d="M166.635 89.178C166.678 89.5282 167.1 89.7652 167.578 89.7098C167.661 89.6999 167.742 89.6815 167.821 89.6548C167.843 89.2369 167.845 88.8348 167.832 88.4627C167.7 88.4295 167.562 88.4216 167.426 88.4392C166.947 88.4953 166.594 88.8261 166.635 89.178Z" fill="#0C0C0C"/>
<path opacity="0.5" d="M164.521 90.261H164.528C164.675 90.2299 164.821 90.1907 164.965 90.1436C165.179 90.0731 165.458 89.9545 165.42 89.7609C165.375 89.5401 164.292 87.2814 164.169 87.0244C164.157 87.0034 164.138 86.9875 164.115 86.9802C164.092 86.9729 164.067 86.9746 164.045 86.985C164.024 86.9954 164.007 87.0137 163.998 87.0362C163.99 87.0586 163.99 87.0835 163.999 87.1057C164.461 88.0688 165.206 89.6493 165.236 89.7978C165.212 89.8671 164.857 90.0024 164.491 90.0764C164.467 90.0817 164.447 90.0957 164.434 90.1155C164.42 90.1353 164.415 90.1595 164.419 90.183C164.423 90.2066 164.435 90.2278 164.454 90.2424C164.473 90.257 164.497 90.2638 164.521 90.2615V90.261Z" fill="#0C0C0C"/>
<path d="M152.366 88.6616L155.635 88.0231C158.103 86.9895 158.804 82.6879 158.804 82.6879C158.804 82.6879 161.851 85.5897 169.133 83.8349C169.133 83.8349 167.551 73.669 156.799 76.7548C153.331 77.7496 150.875 81.2838 151.241 85.9646C151.496 89.2456 152.366 88.6616 152.366 88.6616Z" fill="#0A0A0A"/>
<path d="M156.442 92.0354C155.334 92.2584 154.197 91.2539 153.975 90.1458C153.753 89.0378 154.527 88.2461 155.635 88.0232L156.356 88.6506L157.395 91.8438L156.442 92.0354Z" fill="#FFCAB6"/>
<path d="M164.954 85.2233C165.231 85.027 165.556 84.9078 165.894 84.878C166.064 84.8617 166.235 84.8712 166.402 84.9059C166.57 84.9402 166.734 84.9954 166.889 85.0703L166.894 85.0725C166.911 85.0793 166.93 85.0794 166.947 85.0727C166.964 85.066 166.978 85.053 166.986 85.0364C166.994 85.0198 166.995 85.0008 166.989 84.9833C166.983 84.9659 166.971 84.9513 166.955 84.9425C166.791 84.856 166.617 84.7905 166.436 84.7476C166.255 84.7034 166.068 84.6867 165.881 84.6982C165.504 84.7192 165.139 84.8408 164.824 85.0506C164.812 85.0584 164.801 85.0685 164.793 85.0804C164.785 85.0923 164.779 85.1057 164.776 85.1199C164.773 85.134 164.773 85.1486 164.776 85.1628C164.779 85.177 164.785 85.1904 164.793 85.2023C164.801 85.2143 164.812 85.2245 164.824 85.2323C164.836 85.2401 164.849 85.2454 164.864 85.2478C164.878 85.2503 164.893 85.2499 164.907 85.2466C164.921 85.2433 164.934 85.2372 164.946 85.2287L164.948 85.227L164.954 85.2233Z" fill="#0C0C0C"/>
<path d="M161.969 85.6358C161.597 85.562 161.213 85.5892 160.856 85.7145C160.68 85.7753 160.513 85.8624 160.363 85.9729C160.213 86.0817 160.077 86.2089 159.959 86.3516C159.947 86.3658 159.941 86.3841 159.942 86.4027C159.943 86.4212 159.951 86.4386 159.965 86.4511C159.979 86.4637 159.997 86.4704 160.016 86.4699C160.034 86.4694 160.052 86.4616 160.065 86.4483L160.069 86.4444C160.183 86.3157 160.312 86.202 160.455 86.1058C160.596 86.0096 160.751 85.9353 160.914 85.8853C161.238 85.7837 161.583 85.7697 161.914 85.8446L161.922 85.8465C161.936 85.8502 161.951 85.8511 161.965 85.8491C161.979 85.8471 161.993 85.8423 162.005 85.8349C162.017 85.8276 162.028 85.8179 162.037 85.8063C162.045 85.7948 162.051 85.7816 162.055 85.7677C162.058 85.7537 162.059 85.7392 162.056 85.7251C162.054 85.7109 162.049 85.6973 162.041 85.6851C162.034 85.673 162.024 85.6624 162.012 85.6542C162 85.6459 161.987 85.64 161.973 85.637L161.969 85.6358Z" fill="#0C0C0C"/>
<path d="M155.637 87.9695C157.834 87.1518 158.563 85.6345 158.787 84.5053C158.933 83.7523 158.919 82.9772 158.748 82.2297L158.679 82.2485C158.848 82.9863 158.862 83.7512 158.718 84.4943C158.496 85.6047 157.778 87.0978 155.612 87.9035L155.637 87.9695Z" fill="#0C0C0C"/>
<path d="M183.415 98.3834L184.73 93.9202C184.759 93.8221 184.808 93.7312 184.874 93.6531C184.94 93.575 185.022 93.5115 185.114 93.4666C185.206 93.4218 185.306 93.3965 185.408 93.3925C185.51 93.3885 185.612 93.4058 185.707 93.4433C185.88 93.518 186.02 93.6544 186.098 93.8261C186.177 93.9978 186.189 94.1926 186.132 94.3726L185.85 95.3296L188.118 92.7273C188.365 92.4334 188.856 92.2309 189.167 92.53C189.294 92.6371 189.381 92.7843 189.414 92.9474C189.447 93.1105 189.424 93.2799 189.348 93.428C189.351 93.4296 189.355 93.4316 189.358 93.4339C189.359 93.436 189.361 93.4382 189.363 93.4407L189.744 92.9876C189.814 92.9037 189.903 92.8367 190.003 92.7914C190.102 92.746 190.211 92.7235 190.321 92.7255C190.43 92.7275 190.538 92.7539 190.636 92.8028C190.734 92.8517 190.82 92.9219 190.888 93.0082C190.991 93.1463 191.044 93.3158 191.038 93.4884C191.032 93.6609 190.966 93.826 190.853 93.9561L190.691 94.149C190.694 94.1563 190.696 94.1643 190.697 94.1724C190.836 94.0677 191.009 94.0161 191.183 94.0268C191.358 94.0375 191.522 94.1099 191.648 94.2309C191.782 94.3674 191.86 94.5494 191.865 94.7405C191.871 94.9316 191.804 95.1178 191.679 95.262L191.276 95.7407C191.286 95.7379 191.297 95.7376 191.308 95.7399C191.318 95.7422 191.328 95.747 191.337 95.7539C191.346 95.7626 191.353 95.774 191.356 95.7865C191.507 95.7279 191.672 95.7204 191.828 95.7651C191.983 95.8099 192.119 95.9045 192.215 96.0343C192.314 96.1725 192.362 96.3398 192.354 96.5092C192.345 96.6785 192.28 96.8401 192.168 96.9676L188.77 101.008C188.295 101.573 187.662 101.983 186.952 102.186C186.242 102.389 185.487 102.375 184.785 102.146C184.18 101.949 183.675 101.524 183.379 100.96C183.082 100.397 183.017 99.7402 183.197 99.1295L183.415 98.3834Z" fill="#FFCAB6"/>
<g opacity="0.2">
<path d="M187.115 96.016C187.129 96.027 187.146 96.0324 187.164 96.0309C187.181 96.0295 187.197 96.0214 187.209 96.0083L189.362 93.5307C189.374 93.5171 189.38 93.4993 189.379 93.4813C189.377 93.4634 189.369 93.4466 189.356 93.4348C189.342 93.423 189.324 93.4171 189.306 93.4184C189.288 93.4197 189.271 93.428 189.26 93.4416L187.106 95.919C187.101 95.9257 187.096 95.9336 187.093 95.942C187.091 95.9505 187.089 95.9594 187.09 95.9683C187.091 95.9772 187.093 95.9859 187.097 95.9939C187.101 96.0019 187.107 96.009 187.113 96.0148L187.115 96.016Z" fill="#0C0C0C"/>
</g>
<g opacity="0.2">
<path d="M188.182 96.9956C188.195 97.0067 188.213 97.0121 188.23 97.0107C188.248 97.0092 188.264 97.001 188.276 96.9878L190.678 94.2229C190.684 94.2162 190.689 94.2084 190.692 94.1999C190.694 94.1914 190.696 94.1825 190.695 94.1736C190.694 94.1647 190.692 94.156 190.688 94.148C190.684 94.1401 190.678 94.1329 190.672 94.1271C190.658 94.1159 190.64 94.1104 190.622 94.1116C190.605 94.1129 190.588 94.1209 190.576 94.1339L188.175 96.8988C188.169 96.9055 188.164 96.9134 188.161 96.9218C188.159 96.9303 188.157 96.9392 188.158 96.9481C188.159 96.957 188.161 96.9657 188.165 96.9737C188.169 96.9817 188.175 96.9888 188.181 96.9946L188.182 96.9956Z" fill="#0C0C0C"/>
</g>
<g opacity="0.2">
<path d="M189.331 98.0636C189.344 98.0747 189.362 98.0801 189.379 98.0787C189.397 98.0772 189.413 98.069 189.425 98.0558L191.341 95.8505C191.352 95.8368 191.357 95.8194 191.355 95.8021C191.354 95.7848 191.345 95.7687 191.332 95.7573C191.319 95.7459 191.302 95.7399 191.285 95.7407C191.267 95.7414 191.251 95.7488 191.239 95.7612L189.322 97.9668C189.316 97.9735 189.312 97.9814 189.309 97.9898C189.306 97.9983 189.305 98.0072 189.305 98.0161C189.306 98.025 189.308 98.0337 189.312 98.0417C189.316 98.0497 189.322 98.0568 189.329 98.0626L189.331 98.0636Z" fill="#0C0C0C"/>
</g>
<path d="M191.421 100.332L186.335 123.405C186.323 123.456 186.312 123.51 186.298 123.562C185.155 124.757 183.918 125.858 182.598 126.853C182.332 127.05 182.067 127.245 181.794 127.433C181.626 127.452 181.457 127.461 181.287 127.461C180.381 127.461 179.49 127.222 178.705 126.769C177.92 126.316 177.268 125.665 176.814 124.88L167.122 108.109L176.072 102.939L179.105 108.186L181.327 98.1064L191.421 100.332Z" fill="#267E66"/>
<path d="M175.769 110.851C175.738 111.217 175.677 111.871 175.593 112.73C175.17 117.125 174.181 126.921 173.723 131.448C167.936 133.298 161.726 133.361 155.903 131.629H155.9C151.6 130.342 147.642 128.107 144.319 125.089C144.338 121.041 144.279 116.489 144.007 113.562C143.192 104.816 143.962 103.447 145.228 102.181C145.332 102.077 145.44 101.976 145.548 101.878C146.856 100.689 148.498 99.9137 150.892 99.5893C152.475 99.3757 154.857 99.2207 154.857 99.2207C154.857 99.2207 155.059 103.303 159.868 103.529C166.415 103.837 165.978 99.2207 166.011 99.2207C167.657 99.2207 171.322 99.3241 173.634 100.501C173.636 100.501 173.636 100.501 173.638 100.503C174.104 100.73 174.527 101.034 174.89 101.403C177.538 104.208 176.232 105.407 175.769 110.851Z" fill="#267E66"/>
<path d="M165.495 91.0242C164.551 91.5046 163.473 91.6565 162.432 91.456C162.396 91.4492 162.359 91.4528 162.325 91.4663C162.291 91.4799 162.261 91.5029 162.24 91.5326C162.218 91.5623 162.206 91.5975 162.203 91.6341C162.201 91.6707 162.209 91.7072 162.227 91.7393C162.538 92.2859 163.273 93.2206 164.536 92.8399C165.351 92.5939 165.659 91.7553 165.773 91.2364C165.781 91.2005 165.779 91.1631 165.766 91.1286C165.753 91.094 165.731 91.0639 165.702 91.0416C165.673 91.0193 165.638 91.0058 165.601 91.0028C165.565 90.9997 165.528 91.0071 165.495 91.0242Z" fill="white"/>
<path d="M165.554 86.8225C165.807 86.8225 166.011 86.6182 166.011 86.3661C166.011 86.114 165.807 85.9097 165.554 85.9097C165.302 85.9097 165.098 86.114 165.098 86.3661C165.098 86.6182 165.302 86.8225 165.554 86.8225Z" fill="#0C0C0C"/>
<path d="M161.168 87.5906C161.42 87.5906 161.624 87.3862 161.624 87.1342C161.624 86.8821 161.42 86.6777 161.168 86.6777C160.916 86.6777 160.711 86.8821 160.711 87.1342C160.711 87.3862 160.916 87.5906 161.168 87.5906Z" fill="#0C0C0C"/>
<path d="M174.76 120.704C174.757 120.704 174.754 120.704 174.751 120.704C174.732 120.702 174.716 120.692 174.704 120.677C174.693 120.662 174.688 120.643 174.691 120.625L175.498 112.495C175.499 112.486 175.502 112.477 175.506 112.469C175.511 112.46 175.517 112.453 175.524 112.448C175.532 112.442 175.54 112.438 175.549 112.436C175.559 112.434 175.568 112.433 175.577 112.435C175.596 112.437 175.612 112.447 175.624 112.462C175.635 112.477 175.64 112.496 175.637 112.514L174.83 120.644C174.828 120.661 174.819 120.676 174.806 120.687C174.793 120.699 174.777 120.704 174.76 120.704Z" fill="#0C0C0C"/>
<path d="M169.875 120.313L174.286 118.343C174.383 118.3 174.487 118.277 174.593 118.277C174.699 118.277 174.804 118.298 174.902 118.34C174.999 118.383 175.086 118.445 175.158 118.523C175.23 118.601 175.285 118.693 175.319 118.793C175.377 118.98 175.364 119.182 175.281 119.36C175.199 119.537 175.053 119.678 174.873 119.755L173.927 120.178L177.511 120.214C177.91 120.212 178.401 120.463 178.374 120.91C178.375 121.083 178.318 121.251 178.211 121.387C178.105 121.523 177.955 121.619 177.787 121.659C177.788 121.662 177.788 121.666 177.789 121.67C177.788 121.673 177.788 121.676 177.787 121.679L178.401 121.674C178.515 121.674 178.628 121.698 178.731 121.746C178.834 121.795 178.924 121.865 178.997 121.953C179.069 122.041 179.121 122.143 179.148 122.254C179.176 122.364 179.179 122.479 179.156 122.591C179.117 122.765 179.019 122.921 178.878 123.033C178.738 123.144 178.563 123.203 178.384 123.201L178.122 123.203C178.119 123.211 178.114 123.218 178.108 123.224C178.285 123.263 178.442 123.365 178.551 123.51C178.66 123.655 178.714 123.834 178.704 124.015C178.686 124.212 178.595 124.396 178.447 124.529C178.3 124.663 178.108 124.735 177.91 124.733L177.26 124.738C177.269 124.744 177.277 124.753 177.282 124.763C177.288 124.773 177.29 124.784 177.291 124.795C177.29 124.808 177.286 124.821 177.278 124.832C177.426 124.911 177.544 125.037 177.613 125.19C177.683 125.343 177.7 125.514 177.663 125.678C177.62 125.849 177.521 126 177.381 126.108C177.242 126.215 177.07 126.273 176.894 126.27L171.414 126.309C170.647 126.315 169.897 126.091 169.258 125.667C168.619 125.243 168.121 124.638 167.829 123.929C167.576 123.318 167.572 122.633 167.817 122.019C168.062 121.405 168.537 120.91 169.141 120.641L169.875 120.313Z" fill="#FFCAB6"/>
<g opacity="0.2">
<path d="M174.239 121.64C174.239 121.658 174.247 121.676 174.26 121.689C174.273 121.703 174.291 121.71 174.31 121.71L177.718 121.741C177.736 121.741 177.754 121.734 177.768 121.721C177.781 121.707 177.789 121.69 177.789 121.671C177.789 121.652 177.782 121.634 177.769 121.621C177.756 121.608 177.738 121.6 177.719 121.6L174.31 121.569C174.292 121.569 174.274 121.577 174.261 121.59C174.247 121.603 174.24 121.621 174.24 121.64H174.239Z" fill="#0C0C0C"/>
</g>
<g opacity="0.2">
<path d="M174.184 123.143C174.184 123.162 174.192 123.179 174.205 123.193C174.218 123.206 174.236 123.213 174.255 123.213L178.058 123.248C178.077 123.248 178.095 123.24 178.108 123.227C178.121 123.214 178.129 123.196 178.129 123.177C178.128 123.159 178.12 123.141 178.107 123.128C178.094 123.115 178.077 123.107 178.058 123.107L174.255 123.072C174.236 123.072 174.218 123.08 174.205 123.093C174.192 123.106 174.184 123.124 174.184 123.143H174.184Z" fill="#0C0C0C"/>
</g>
<g opacity="0.2">
<path d="M174.115 124.769C174.115 124.788 174.123 124.806 174.136 124.819C174.149 124.832 174.167 124.84 174.186 124.84L177.22 124.867C177.238 124.867 177.256 124.86 177.27 124.846C177.283 124.833 177.29 124.815 177.29 124.797C177.29 124.778 177.283 124.76 177.27 124.747C177.256 124.734 177.238 124.726 177.22 124.726L174.186 124.699C174.167 124.699 174.149 124.706 174.136 124.719C174.123 124.733 174.115 124.751 174.115 124.769V124.769Z" fill="#0C0C0C"/>
</g>
<path d="M171.139 128.166L155.903 131.629H155.9C151.6 130.342 147.643 128.107 144.319 125.089C143.962 124.765 143.613 124.433 143.272 124.093C142.677 123.499 142.107 122.881 141.564 122.239L143.697 105.082C143.93 103.699 144.702 102.465 145.845 101.651C146.987 100.838 148.406 100.511 149.789 100.744C151.172 100.977 152.406 101.749 153.22 102.892C154.033 104.034 154.36 105.453 154.127 106.836L152.779 122.947L169.767 119.101L171.139 128.166Z" fill="#267E66"/>
<path d="M149.342 123.579C149.333 123.58 149.323 123.579 149.315 123.576C149.306 123.573 149.298 123.568 149.291 123.562C149.284 123.556 149.278 123.549 149.274 123.541C149.269 123.532 149.267 123.523 149.266 123.514C149.265 123.505 149.267 123.496 149.27 123.487C149.272 123.478 149.277 123.47 149.283 123.463C149.289 123.456 149.297 123.45 149.305 123.446C149.313 123.442 149.322 123.439 149.331 123.438L152.738 122.71C152.747 122.709 152.756 122.709 152.765 122.711C152.774 122.714 152.783 122.718 152.79 122.723C152.797 122.729 152.804 122.736 152.809 122.743C152.813 122.751 152.817 122.76 152.818 122.769C152.819 122.779 152.819 122.788 152.817 122.797C152.814 122.806 152.81 122.814 152.805 122.822C152.799 122.829 152.792 122.835 152.784 122.84C152.776 122.845 152.768 122.848 152.758 122.849L149.351 123.578C149.348 123.579 149.345 123.579 149.342 123.579Z" fill="#0C0C0C"/>
<path d="M171.139 128.166C171.143 128.184 171.14 128.203 171.13 128.219C171.12 128.235 171.105 128.246 171.087 128.251L156.286 131.739C156.192 131.713 156.1 131.688 156.008 131.659L170.984 128.133L169.65 119.207L152.762 122.85C152.751 122.852 152.74 122.851 152.729 122.848C152.719 122.845 152.709 122.839 152.701 122.831C152.694 122.823 152.689 122.813 152.685 122.803C152.682 122.792 152.681 122.781 152.682 122.77L153.629 113.564C153.631 113.555 153.634 113.546 153.639 113.539C153.644 113.531 153.651 113.524 153.658 113.519C153.666 113.514 153.674 113.51 153.684 113.508C153.693 113.506 153.702 113.506 153.711 113.508C153.729 113.511 153.746 113.521 153.757 113.536C153.768 113.551 153.773 113.569 153.77 113.588L152.837 122.7L169.68 119.049C169.689 119.047 169.699 119.046 169.708 119.048C169.718 119.05 169.726 119.053 169.734 119.059C169.742 119.063 169.749 119.069 169.755 119.076C169.761 119.084 169.765 119.092 169.767 119.101L171.139 128.166Z" fill="#0C0C0C"/>
<path d="M56.5957 167.559C71.8365 167.559 84.1915 155.204 84.1915 139.963C84.1915 124.722 71.8365 112.367 56.5957 112.367C41.355 112.367 29 124.722 29 139.963C29 155.204 41.355 167.559 56.5957 167.559Z" fill="white"/>
<path opacity="0.09" d="M56.5957 167.559C71.8365 167.559 84.1915 155.204 84.1915 139.963C84.1915 124.722 71.8365 112.367 56.5957 112.367C41.355 112.367 29 124.722 29 139.963C29 155.204 41.355 167.559 56.5957 167.559Z" fill="#2C4981"/>
<path d="M48.9963 124.311C48.9963 124.311 49.2954 132.622 54.8428 133.004L55.7824 122.044L48.9963 124.311Z" fill="#0A0A0A"/>
<path d="M50.0647 134.702C51.8797 134.702 53.3511 133.23 53.3511 131.415C53.3511 129.6 51.8797 128.129 50.0647 128.129C48.2497 128.129 46.7783 129.6 46.7783 131.415C46.7783 133.23 48.2497 134.702 50.0647 134.702Z" fill="#0A0A0A"/>
<path d="M62.9236 136.861C62.8942 136.857 62.5696 142.247 56.3088 141.777C51.9744 141.453 50.4292 136.854 50.3301 136.854C50.8254 136.772 51.314 136.654 51.7919 136.5C52.4743 136.133 53.3188 135.752 53.5387 134.426C53.6656 133.662 53.4506 129.754 53.5166 128.981L60.1697 130.467C60.0758 132.099 59.426 135.883 61.7065 136.553C62.0856 136.663 62.4944 136.765 62.9236 136.861Z" fill="#FFCAB6"/>
<path opacity="0.5" d="M60.2626 135.006C60.1583 134.67 60.0912 134.323 60.0624 133.972C59.9894 133.172 60.0039 132.367 60.1059 131.571C58.7537 131.388 57.4798 130.83 56.4289 129.96C56.3053 130.416 55.6259 132.409 55.8141 132.843C56.1697 133.664 57.8407 135.006 60.2626 135.006Z" fill="#0C0C0C"/>
<path d="M59.2202 133.554C56.5852 133.587 53.2911 132.258 52.8828 128.718L52.5145 125.523C52.106 121.984 53.6341 118.899 56.967 118.515C60.2996 118.131 63.1216 120.713 63.5301 124.253L63.6931 125.667C63.8498 127.025 63.9217 133.494 59.2202 133.554Z" fill="#FFCAB6"/>
<path d="M62.738 125.572C62.9662 125.572 63.1512 125.387 63.1512 125.159C63.1512 124.93 62.9662 124.745 62.738 124.745C62.5098 124.745 62.3248 124.93 62.3248 125.159C62.3248 125.387 62.5098 125.572 62.738 125.572Z" fill="#0C0C0C"/>
<path d="M58.5146 126.055C58.7429 126.055 58.9279 125.87 58.9279 125.641C58.9279 125.413 58.7429 125.228 58.5146 125.228C58.2864 125.228 58.1014 125.413 58.1014 125.641C58.1014 125.87 58.2864 126.055 58.5146 126.055Z" fill="#0C0C0C"/>
<path opacity="0.5" d="M60.6104 128.787H60.617C60.752 128.771 60.886 128.747 61.0184 128.716C61.2162 128.667 61.477 128.583 61.4566 128.406C61.4331 128.204 60.6299 126.092 60.5383 125.852C60.5343 125.841 60.5284 125.832 60.5207 125.824C60.5131 125.816 60.5039 125.809 60.4938 125.804C60.4837 125.8 60.4727 125.797 60.4616 125.797C60.4505 125.797 60.4394 125.799 60.4291 125.803C60.4187 125.807 60.4092 125.813 60.4011 125.82C60.393 125.828 60.3865 125.837 60.382 125.847C60.3775 125.857 60.375 125.868 60.3747 125.879C60.3744 125.89 60.3762 125.902 60.3802 125.912C60.7229 126.811 61.2729 128.289 61.2884 128.425C61.0769 128.544 60.84 128.611 60.5975 128.619C60.5751 128.621 60.5544 128.632 60.5398 128.649C60.5251 128.666 60.5179 128.688 60.5196 128.71C60.5213 128.733 60.5319 128.753 60.5489 128.768C60.5659 128.783 60.588 128.79 60.6104 128.788V128.787Z" fill="#0C0C0C"/>
<path opacity="0.5" d="M60.0148 130.26C60.5561 130.23 61.0826 130.072 61.5518 129.8C61.5703 129.789 61.5837 129.771 61.5892 129.75C61.5947 129.729 61.5919 129.706 61.5813 129.687C61.5708 129.668 61.5534 129.654 61.5326 129.647C61.5119 129.641 61.4894 129.642 61.4699 129.652C60.4565 130.213 59.4872 130.245 58.6674 129.746C58.6508 129.735 58.6337 129.726 58.6162 129.717C58.5959 129.709 58.5733 129.709 58.5531 129.717C58.533 129.726 58.5168 129.742 58.5079 129.761C58.4991 129.781 58.4982 129.804 58.5056 129.824C58.5129 129.845 58.5279 129.862 58.5474 129.872C58.5537 129.875 58.5645 129.882 58.5793 129.891C59.0103 130.154 59.5102 130.283 60.0148 130.26Z" fill="#0C0C0C"/>
<path d="M49.8049 126.432L52.7913 126.104C55.0885 125.362 56.043 121.547 56.043 121.547C56.043 121.547 58.1015 123.888 64.2016 122.819C64.2016 122.819 63.9653 114.955 54.6878 116.062C51.4575 116.448 49.0217 119.687 48.9966 123.923C48.9792 126.891 49.8049 126.432 49.8049 126.432Z" fill="#0A0A0A"/>
<path d="M53.2145 129.773C52.2016 129.89 51.2556 128.901 51.1389 127.888C51.0221 126.875 51.7785 126.222 52.7914 126.105L53.3916 126.723L54.0853 129.672L53.2145 129.773Z" fill="#FFCAB6"/>
<path d="M61.2766 124.128C61.5753 123.962 61.913 123.88 62.2543 123.89C62.4228 123.894 62.5898 123.923 62.7497 123.976C62.9086 124.028 63.0602 124.1 63.201 124.19C63.2151 124.199 63.2252 124.213 63.2291 124.23C63.2331 124.246 63.2307 124.263 63.2224 124.278C63.2141 124.292 63.2005 124.303 63.1844 124.307C63.1684 124.312 63.1512 124.31 63.1364 124.303L63.1321 124.3C62.9987 124.221 62.8559 124.159 62.707 124.116C62.5595 124.071 62.4061 124.05 62.2522 124.052C61.9459 124.053 61.6454 124.136 61.3814 124.291L61.375 124.295C61.3641 124.302 61.3519 124.307 61.339 124.31C61.3262 124.312 61.313 124.312 61.3003 124.309C61.2875 124.306 61.2755 124.301 61.2649 124.293C61.2543 124.285 61.2453 124.276 61.2385 124.265C61.2317 124.253 61.2273 124.241 61.2254 124.228C61.2235 124.215 61.2242 124.202 61.2275 124.189C61.2309 124.177 61.2367 124.165 61.2447 124.155C61.2526 124.144 61.2626 124.136 61.274 124.129L61.2766 124.128Z" fill="#0C0C0C"/>
<path d="M58.6001 124.62C58.3081 124.527 57.9967 124.514 57.6978 124.581C57.5473 124.614 57.4026 124.669 57.2687 124.746C57.1333 124.821 57.008 124.914 56.8956 125.021L56.8921 125.024C56.8793 125.033 56.8635 125.038 56.8477 125.036C56.8319 125.035 56.8171 125.028 56.8062 125.016C56.7954 125.005 56.7891 124.989 56.7887 124.973C56.7883 124.958 56.7938 124.942 56.804 124.93C56.9211 124.811 57.0528 124.707 57.1958 124.62C57.3398 124.532 57.4961 124.467 57.6596 124.425C57.9901 124.34 58.3375 124.344 58.6657 124.439C58.6784 124.442 58.6902 124.448 58.7006 124.456C58.711 124.464 58.7197 124.474 58.7262 124.485C58.7326 124.496 58.7367 124.509 58.7382 124.522C58.7397 124.535 58.7385 124.548 58.7348 124.561C58.7311 124.573 58.7248 124.585 58.7165 124.595C58.7081 124.605 58.6978 124.613 58.6862 124.619C58.6746 124.625 58.6618 124.629 58.6488 124.63C58.6357 124.631 58.6226 124.629 58.6102 124.625H58.6076L58.6001 124.62Z" fill="#0C0C0C"/>
<path opacity="0.52" d="M60.0713 131.061C60.1693 131.057 60.2667 131.044 60.3626 131.024C60.3839 131.019 60.4024 131.005 60.4141 130.987C60.4257 130.968 60.4297 130.946 60.4252 130.924C60.4206 130.903 60.4079 130.884 60.3897 130.871C60.3715 130.859 60.3493 130.854 60.3276 130.858C60.1779 130.902 60.0206 130.913 59.8662 130.891C59.7117 130.869 59.5638 130.815 59.4321 130.731C59.4148 130.717 59.3924 130.71 59.3701 130.712C59.3478 130.715 59.3273 130.726 59.313 130.743C59.2988 130.76 59.2921 130.783 59.2944 130.805C59.2966 130.827 59.3076 130.848 59.325 130.862C59.5433 131.013 59.8071 131.083 60.0713 131.061Z" fill="#0C0C0C"/>
<path opacity="0.1" d="M57.9423 128.853C58.3768 128.838 58.72 128.567 58.7088 128.248C58.6977 127.93 58.3364 127.684 57.9019 127.699C57.4675 127.714 57.1243 127.985 57.1354 128.303C57.1466 128.622 57.5079 128.868 57.9423 128.853Z" fill="#0C0C0C"/>
<path opacity="0.1" d="M62.5921 127.973C62.6043 128.291 62.9654 128.537 63.4 128.523C63.4751 128.52 63.5497 128.509 63.6227 128.491C63.6741 128.117 63.7056 127.756 63.7227 127.421C63.6058 127.381 63.4824 127.363 63.3589 127.369C62.9252 127.383 62.5823 127.653 62.5921 127.973Z" fill="#0C0C0C"/>
<path d="M72.2738 142.538C72.255 144.419 71.609 146.663 71.3788 149.374C71.3177 150.097 69.7647 152.19 69.5392 154.518C69.255 157.483 69.8871 162.106 69.9717 164.105C65.6066 166.52 60.6689 167.708 55.6829 167.543C50.6968 167.377 45.8487 165.865 41.6534 163.165C41.5406 158.03 41.4067 151.69 41.2352 150.17C40.6785 145.152 40.8288 141.979 41.6322 140.494C42.9454 138.07 45.2827 137.33 47.7281 136.996C49.2221 136.794 51.4655 136.651 51.4655 136.651C51.4655 136.651 51.6558 140.496 56.1896 140.71C62.3606 141.002 61.9495 136.651 61.9801 136.651C64.2188 136.651 68.4612 137.187 70.0868 138.295C71.811 139.468 72.2949 140.858 72.2738 142.538Z" fill="#DFA41E"/>
<path d="M50.9534 145.465L42.5812 163.735C39.3667 161.837 36.5698 159.308 34.3594 156.3L41.3432 141.059L50.9534 145.465Z" fill="#DFA41E"/>
<path d="M79.037 156.024C77.3969 158.312 75.4173 160.337 73.1666 162.028C72.4258 162.587 71.6566 163.108 70.8622 163.588L62.2692 144.697L71.8911 140.318L79.037 156.024Z" fill="#DFA41E"/>
<path d="M114.027 59.4631C129.895 59.4631 142.758 46.5995 142.758 30.7315C142.758 14.8635 129.895 2 114.027 2C98.1588 2 85.2953 14.8635 85.2953 30.7315C85.2953 46.5995 98.1588 59.4631 114.027 59.4631Z" fill="white"/>
<path opacity="0.09" d="M114.027 59.4631C129.895 59.4631 142.758 46.5995 142.758 30.7315C142.758 14.8635 129.895 2 114.027 2C98.1588 2 85.2953 14.8635 85.2953 30.7315C85.2953 46.5995 98.1588 59.4631 114.027 59.4631Z" fill="#2C4981"/>
<path d="M119.583 13.5266C119.583 13.5266 121.402 11.5548 121.261 7.79906C121.153 4.89112 118.87 7.20098 118.87 7.20098C118.87 7.20098 118.771 5.10794 117.32 5.58011C115.868 6.05227 115.422 8.35063 115.422 8.35063" fill="#0C0C0C"/>
<path d="M109.665 7.21265C109.665 7.21265 102.42 9.3421 106.903 18.8714L107.565 18.7967L108.908 18.6455" fill="#0C0C0C"/>
<path d="M119.934 28.7562C119.901 28.752 119.534 34.831 112.472 34.3001C107.583 33.9339 105.84 28.7468 105.728 28.7468C106.255 28.6348 106.907 28.4649 107.165 28.4065C107.73 28.2755 108.241 27.9759 108.631 27.5474C109.02 27.1189 109.27 26.5819 109.348 26.0078C109.491 25.1461 109.248 20.7378 109.323 19.8661L116.827 21.541C116.722 23.3824 115.988 27.651 118.561 28.4065C118.989 28.5317 119.45 28.6468 119.934 28.7562Z" fill="#FFCAB6"/>
<path opacity="0.52" d="M116.932 26.6622C116.815 26.2834 116.739 25.8928 116.707 25.4975C116.624 24.5955 116.641 23.6871 116.756 22.7886C115.231 22.5827 113.794 21.9531 112.608 20.9713C112.469 21.486 111.702 23.7348 111.915 24.2239C112.316 25.1485 114.2 26.6622 116.932 26.6622Z" fill="#0C0C0C"/>
<path d="M115.707 24.7268C112.748 24.993 108.927 23.7834 108.161 19.8379L107.469 16.2779C106.703 12.3314 108.155 8.73139 111.869 8.01022C115.584 7.28881 118.982 9.94822 119.748 13.8938L120.054 15.4698C120.149 16.0127 120.208 16.5616 120.229 17.1125C120.295 18.5689 120.39 20.7825 119.69 22.4189C119.03 23.9641 117.599 24.557 115.707 24.7268Z" fill="#FFCAB6"/>
<path opacity="0.5" d="M116.155 20.8261C116.697 20.8159 117.229 20.6784 117.708 20.4248C117.719 20.4201 117.728 20.4134 117.736 20.4049C117.744 20.3965 117.75 20.3866 117.753 20.3758C117.757 20.365 117.759 20.3536 117.758 20.3422C117.757 20.3308 117.754 20.3196 117.749 20.3094C117.744 20.2992 117.737 20.2901 117.728 20.2828C117.719 20.2754 117.709 20.2699 117.698 20.2665C117.687 20.2632 117.676 20.2621 117.664 20.2633C117.653 20.2645 117.642 20.268 117.632 20.2736C116.598 20.7953 115.629 20.7904 114.828 20.2609C114.812 20.2497 114.795 20.2393 114.778 20.2299C114.768 20.225 114.757 20.2221 114.746 20.2214C114.735 20.2207 114.724 20.2221 114.713 20.2257C114.703 20.2293 114.693 20.2349 114.685 20.2423C114.677 20.2496 114.67 20.2585 114.665 20.2685C114.66 20.2785 114.657 20.2893 114.656 20.3004C114.656 20.3115 114.657 20.3227 114.661 20.3332C114.664 20.3437 114.67 20.3534 114.677 20.3618C114.685 20.3701 114.693 20.377 114.703 20.3819C114.71 20.3854 114.72 20.3924 114.735 20.4021C115.155 20.6816 115.65 20.8293 116.155 20.8261Z" fill="#0C0C0C"/>
<path opacity="0.52" d="M116.181 21.6288C116.279 21.6285 116.377 21.6198 116.473 21.6029C116.484 21.6011 116.495 21.597 116.504 21.5911C116.514 21.5852 116.522 21.5775 116.528 21.5684C116.535 21.5594 116.539 21.5491 116.542 21.5383C116.544 21.5275 116.544 21.5163 116.543 21.5053C116.541 21.4944 116.537 21.4839 116.531 21.4745C116.525 21.4651 116.517 21.4569 116.508 21.4505C116.499 21.4441 116.489 21.4395 116.478 21.437C116.467 21.4346 116.456 21.4343 116.445 21.4361C116.294 21.474 116.136 21.4793 115.983 21.4515C115.829 21.4237 115.683 21.3635 115.555 21.275C115.538 21.2607 115.516 21.2536 115.494 21.2552C115.472 21.2569 115.452 21.2671 115.437 21.2837C115.422 21.3002 115.415 21.3219 115.416 21.344C115.417 21.3661 115.427 21.3869 115.443 21.4018C115.655 21.5606 115.916 21.6408 116.181 21.6288Z" fill="#0C0C0C"/>
<path d="M118.859 16.4639C119.117 16.4639 119.325 16.2552 119.325 15.9978C119.325 15.7404 119.117 15.5317 118.859 15.5317C118.602 15.5317 118.393 15.7404 118.393 15.9978C118.393 16.2552 118.602 16.4639 118.859 16.4639Z" fill="#0C0C0C"/>
<path d="M114.327 16.9935C114.585 16.9935 114.793 16.7849 114.793 16.5275C114.793 16.2701 114.585 16.0614 114.327 16.0614C114.07 16.0614 113.861 16.2701 113.861 16.5275C113.861 16.7849 114.07 16.9935 114.327 16.9935Z" fill="#0C0C0C"/>
<path d="M108.625 20.995C107.496 21.2142 106.346 20.1841 106.127 19.0551C105.907 17.9261 106.702 17.126 107.831 16.9069L108.559 17.5503L109.595 20.8066L108.625 20.995Z" fill="#FFCAB6"/>
<path d="M109.421 18.9729C109.421 18.9729 108.791 13.308 110.425 12.6555C111.513 12.2206 114.544 13.3275 116.995 12.3841C118.067 11.9712 119.171 12.0553 119.373 12.5606C119.453 12.7605 119.605 9.6505 117.456 7.70005C115.745 6.1473 111.122 6.45808 109.167 7.42262C103.755 10.0933 107.642 17.1949 107.642 17.1949L108.246 19.0779L109.421 18.9729Z" fill="#0C0C0C"/>
<g opacity="0.52">
<path d="M116.85 19.423H116.857C117.221 19.3525 117.824 19.1959 117.773 18.9236C117.73 18.6979 116.646 16.3807 116.523 16.1174C116.517 16.1062 116.51 16.0961 116.501 16.0877C116.492 16.0794 116.481 16.0729 116.469 16.0687C116.458 16.0645 116.445 16.0626 116.433 16.0632C116.421 16.0638 116.408 16.0668 116.397 16.072C116.386 16.0773 116.376 16.0847 116.368 16.0939C116.359 16.103 116.353 16.1137 116.349 16.1254C116.344 16.137 116.342 16.1494 116.343 16.1618C116.344 16.1741 116.347 16.1863 116.352 16.1975C116.832 17.2236 117.558 18.805 117.588 18.9588C117.564 19.0293 117.2 19.1653 116.823 19.2374C116.798 19.2411 116.776 19.2546 116.761 19.2748C116.746 19.2951 116.739 19.3205 116.743 19.3454C116.747 19.3703 116.76 19.3927 116.78 19.4077C116.801 19.4227 116.826 19.4291 116.851 19.4254L116.85 19.423Z" fill="#0C0C0C"/>
</g>
<path d="M117.107 13.7454C117.472 13.5707 117.876 13.4977 118.279 13.534C118.476 13.5506 118.67 13.5967 118.853 13.6707C119.035 13.7428 119.206 13.8375 119.364 13.9526C119.393 13.9728 119.414 14.0036 119.421 14.0385C119.428 14.0734 119.421 14.1097 119.402 14.1396C119.383 14.1696 119.353 14.191 119.318 14.1993C119.283 14.2075 119.247 14.202 119.216 14.184L119.206 14.1802C119.063 14.0889 118.909 14.0159 118.748 13.9629C118.589 13.91 118.423 13.8814 118.256 13.8781C117.927 13.8689 117.601 13.947 117.312 14.1043L117.3 14.1111C117.276 14.1246 117.25 14.1333 117.223 14.1367C117.196 14.1401 117.169 14.1382 117.143 14.131C117.117 14.1239 117.092 14.1117 117.071 14.095C117.049 14.0784 117.031 14.0578 117.018 14.0342C117.004 14.0106 116.996 13.9847 116.992 13.9578C116.989 13.9309 116.991 13.9035 116.998 13.8774C117.005 13.8512 117.017 13.8267 117.034 13.8053C117.05 13.7838 117.071 13.7659 117.095 13.7524L117.107 13.7454Z" fill="#0C0C0C"/>
<path d="M114.435 14.4675C114.118 14.3787 113.783 14.3752 113.464 14.4574C113.302 14.4977 113.147 14.5624 113.004 14.6493C112.858 14.7368 112.724 14.8421 112.605 14.9629L112.597 14.9704C112.571 14.9954 112.537 15.0092 112.501 15.0091C112.465 15.009 112.431 14.9949 112.405 14.9698C112.38 14.9447 112.365 14.9106 112.364 14.8748C112.363 14.839 112.377 14.8043 112.401 14.778C112.529 14.6305 112.675 14.4997 112.836 14.3888C112.999 14.2757 113.177 14.1876 113.366 14.1273C113.555 14.0651 113.751 14.0291 113.95 14.0202C114.153 14.009 114.357 14.0267 114.555 14.0728C114.608 14.0853 114.654 14.1184 114.683 14.165C114.712 14.2115 114.721 14.2676 114.709 14.3209C114.697 14.3742 114.663 14.4204 114.617 14.4493C114.57 14.4782 114.514 14.4875 114.461 14.475L114.449 14.4717L114.435 14.4675Z" fill="#0C0C0C"/>
<path d="M115.864 9.99231C116.67 9.66574 116.934 8.43943 116.453 7.25328C115.972 6.06713 114.929 5.37031 114.124 5.69689C113.318 6.02347 113.054 7.24977 113.535 8.43592C114.016 9.62207 115.059 10.3189 115.864 9.99231Z" fill="#0C0C0C"/>
<path d="M129.694 35.038C129.722 36.9854 128.961 39.1747 128.707 42.1393C128.656 42.7407 128.534 44.0656 128.371 45.7921C128.106 48.651 127.73 52.6045 127.401 56.1681C122.698 58.6366 117.403 59.755 112.104 59.3992C106.804 59.0435 101.706 57.2275 97.3752 54.1526C97.2718 54.075 97.1685 53.9999 97.0651 53.927C96.7903 49.8984 96.4661 45.67 96.1701 42.9991C95.6134 38.0119 94.8546 35.5289 95.2798 33.8517C95.3139 33.7089 95.3594 33.569 95.4161 33.4336C96.6399 30.4643 100.537 29.1394 103.177 28.7823C104.789 28.5639 107.213 28.4065 107.213 28.4065C107.213 28.4065 107.418 32.5597 112.311 32.7899C118.973 33.1047 118.529 28.4065 118.562 28.4065C119.64 28.4065 125.515 29.1911 126.983 30.1495C127.229 30.3093 127.465 30.4851 127.688 30.6757C128.326 31.2078 128.837 31.8755 129.184 32.6301C129.531 33.3848 129.705 34.2074 129.694 35.038Z" fill="#383838"/>
<path d="M105.165 38.0494L97.3752 54.1524C97.2719 54.0749 97.1685 53.9997 97.0651 53.9269C94.0455 51.7127 91.4845 48.9332 89.5245 45.7427L95.2798 33.8516L95.5077 33.3794L105.165 38.0494Z" fill="#383838"/>
<path d="M104.413 39.9029L97.3283 54.1173C97.2813 54.082 97.2367 54.0491 97.1897 54.0186L104.265 39.8301C104.275 39.8103 104.293 39.7953 104.314 39.7883C104.335 39.7813 104.358 39.7828 104.378 39.7925C104.397 39.8025 104.412 39.8197 104.418 39.8404C104.425 39.8611 104.423 39.8836 104.413 39.9029Z" fill="white"/>
<path d="M140.335 42.2989C138.923 45.4993 136.941 48.4158 134.484 50.906L128.372 45.792L120.608 39.2944L127.688 30.6756L127.709 30.6498L140.335 42.2989Z" fill="#383838"/>
<path d="M128.466 45.8548C128.486 45.8538 128.505 45.8456 128.519 45.8317C128.534 45.8179 128.542 45.7993 128.544 45.7794L128.947 41.0507C128.949 41.0288 128.942 41.0071 128.928 40.9903C128.914 40.9736 128.894 40.9631 128.872 40.9612C128.851 40.9596 128.829 40.9666 128.812 40.9806C128.796 40.9946 128.785 41.0146 128.783 41.0363L128.38 45.7653C128.378 45.7871 128.385 45.8087 128.399 45.8254C128.413 45.8422 128.433 45.8526 128.455 45.8546L128.466 45.8548Z" fill="white"/>
<path d="M249.316 183.879C264.451 183.879 276.72 171.609 276.72 156.475C276.72 141.34 264.451 129.071 249.316 129.071C234.181 129.071 221.912 141.34 221.912 156.475C221.912 171.609 234.181 183.879 249.316 183.879Z" fill="white"/>
<path opacity="0.09" d="M221.912 156.474C221.912 161.894 223.519 167.192 226.53 171.699C229.541 176.205 233.821 179.717 238.828 181.792C243.836 183.866 249.346 184.408 254.661 183.351C259.977 182.294 264.86 179.684 268.692 175.851C272.525 172.019 275.135 167.136 276.192 161.82C277.25 156.505 276.707 150.995 274.633 145.987C272.559 140.98 269.046 136.7 264.54 133.689C260.033 130.678 254.735 129.071 249.315 129.071C245.713 129.058 242.144 129.757 238.813 131.13C235.482 132.502 232.456 134.52 229.909 137.067C227.362 139.615 225.344 142.641 223.971 145.972C222.599 149.302 221.899 152.872 221.912 156.474Z" fill="#2C4981"/>
<path d="M261.751 141.352C261.313 146.426 261.719 148.147 263.826 151.054C265.603 153.505 255.492 151.422 251.018 150.625L254.966 139.087C254.966 139.087 261.904 139.57 261.751 141.352Z" fill="#0A0A0A"/>
<path d="M246.316 139.241C244.996 144.16 245.144 145.682 242.561 148.265C240.421 150.406 248.764 150.841 253.241 151.619L253.467 139.427C253.467 139.427 246.78 137.514 246.316 139.241Z" fill="#0A0A0A"/>
<path d="M246.761 153.548C246.79 153.544 247.118 158.983 253.437 158.509C257.812 158.181 259.372 153.54 259.472 153.54C258.972 153.457 258.479 153.337 257.997 153.182C257.308 152.812 256.456 152.427 256.234 151.089C256.106 150.318 256.323 146.373 256.256 145.592L249.541 147.091C249.635 148.739 250.292 152.558 247.99 153.234C247.607 153.347 247.194 153.45 246.761 153.548Z" fill="#FFCAB6"/>
<path opacity="0.5" d="M249.446 151.674C249.552 151.335 249.619 150.986 249.648 150.632C249.722 149.825 249.708 149.012 249.605 148.208C250.97 148.024 252.255 147.46 253.316 146.582C253.441 147.042 254.127 149.054 253.937 149.492C253.578 150.319 251.891 151.674 249.446 151.674Z" fill="#0C0C0C"/>
<path d="M250.315 149.98C252.963 150.236 256.388 149.177 257.098 145.651L257.738 142.47C258.448 138.944 257.171 135.713 253.851 135.045C250.532 134.377 247.475 136.736 246.765 140.261L246.482 141.671C246.21 143.022 245.591 149.523 250.315 149.98Z" fill="#FFCAB6"/>
<path d="M260.942 143.474L257.956 143.147C252.112 142.072 250.681 137.357 250.681 137.357C250.681 137.357 248.23 140.629 246.148 139.878C246.148 139.878 246.819 131.987 256.059 133.374C259.689 133.918 261.75 136.928 261.75 140.964C261.75 143.932 260.942 143.474 260.942 143.474Z" fill="#0A0A0A"/>
<path opacity="0.1" d="M252.854 144.874C252.892 144.554 252.57 144.253 252.134 144.201C251.699 144.149 251.315 144.366 251.276 144.685C251.238 145.005 251.561 145.306 251.996 145.358C252.432 145.41 252.816 145.193 252.854 144.874Z" fill="#0C0C0C"/>
<path opacity="0.1" d="M247.395 144.082C247.356 144.401 246.972 144.618 246.536 144.566C246.461 144.557 246.387 144.54 246.315 144.516C246.295 144.135 246.294 143.769 246.305 143.43C246.426 143.4 246.551 143.393 246.675 143.409C247.109 143.46 247.432 143.761 247.395 144.082Z" fill="#0C0C0C"/>
<path opacity="0.5" d="M249.319 145.068H249.313C249.178 145.04 249.045 145.005 248.915 144.962C248.72 144.897 248.465 144.79 248.5 144.613C248.541 144.412 249.527 142.356 249.64 142.122C249.644 142.111 249.651 142.102 249.659 142.094C249.668 142.086 249.678 142.08 249.688 142.076C249.699 142.072 249.71 142.071 249.722 142.071C249.733 142.072 249.745 142.075 249.755 142.08C249.765 142.085 249.774 142.092 249.782 142.1C249.789 142.109 249.795 142.119 249.799 142.129C249.803 142.14 249.804 142.152 249.803 142.163C249.802 142.175 249.799 142.186 249.794 142.196C249.373 143.072 248.695 144.512 248.668 144.647C248.87 144.785 249.103 144.872 249.346 144.901C249.368 144.905 249.387 144.918 249.399 144.936C249.412 144.954 249.417 144.976 249.413 144.998C249.41 145.019 249.398 145.039 249.381 145.052C249.363 145.066 249.341 145.072 249.319 145.069V145.068Z" fill="#0C0C0C"/>
<path d="M256.675 146.684C257.684 146.887 258.719 145.972 258.922 144.963C259.125 143.954 258.419 143.233 257.411 143.03L256.755 143.602L255.808 146.509L256.675 146.684Z" fill="#FFCAB6"/>
<path d="M248.924 140.481C248.8 140.392 248.664 140.321 248.521 140.269C248.375 140.215 248.223 140.18 248.069 140.167C247.914 140.153 247.758 140.161 247.606 140.193C247.452 140.224 247.304 140.275 247.163 140.343L247.158 140.345C247.143 140.351 247.126 140.35 247.111 140.344C247.096 140.338 247.084 140.326 247.077 140.312C247.07 140.297 247.069 140.28 247.074 140.265C247.078 140.249 247.089 140.236 247.103 140.228C247.252 140.149 247.41 140.089 247.575 140.05C247.74 140.01 247.91 139.995 248.08 140.005C248.424 140.024 248.757 140.135 249.043 140.327C249.064 140.342 249.078 140.364 249.083 140.389C249.087 140.415 249.082 140.44 249.067 140.462C249.053 140.483 249.031 140.497 249.006 140.503C248.981 140.508 248.955 140.503 248.933 140.489L248.931 140.487L248.924 140.481Z" fill="#0C0C0C"/>
<path d="M251.643 140.856C251.981 140.789 252.331 140.814 252.656 140.928C252.817 140.983 252.968 141.063 253.106 141.163C253.243 141.262 253.366 141.378 253.474 141.508C253.486 141.52 253.492 141.537 253.491 141.555C253.49 141.572 253.482 141.588 253.47 141.6C253.457 141.612 253.44 141.618 253.423 141.617C253.405 141.616 253.389 141.609 253.377 141.596L253.374 141.592C253.27 141.475 253.151 141.372 253.021 141.284C252.893 141.196 252.752 141.129 252.604 141.083C252.309 140.991 251.994 140.978 251.693 141.046L251.686 141.048C251.66 141.054 251.634 141.05 251.611 141.037C251.589 141.023 251.573 141.001 251.567 140.976C251.56 140.951 251.565 140.924 251.578 140.902C251.592 140.879 251.613 140.863 251.639 140.857L251.643 140.856Z" fill="#0C0C0C"/>
<path d="M236.583 180.745C235.506 180.275 234.7 179.772 232.86 178.386C231.533 177.39 230.299 176.274 229.175 175.054L238.621 157.08L239.031 156.299L247.551 160.778L240.161 174.842L240.127 174.904L240.191 175.154" fill="#AC3742"/>
<path d="M267.997 166.286C267.749 168.951 267.695 173.096 267.712 176.782C264.15 180.013 259.801 182.248 255.101 183.265C250.401 184.281 245.517 184.042 240.938 182.572C240.378 177.014 239.545 168.847 239.075 163.817C238.599 158.608 237.2 156.888 241.02 154.393C243.124 153.322 246.461 153.227 247.961 153.227C247.452 158.165 257.858 158.773 258.117 153.227C265.9 153.955 269.503 154.136 267.997 166.286Z" fill="#AC3742"/>
<path d="M248.432 145.763C249.292 146.2 250.273 146.339 251.221 146.156C251.254 146.15 251.288 146.153 251.319 146.165C251.35 146.178 251.377 146.199 251.396 146.226C251.416 146.253 251.427 146.285 251.429 146.319C251.431 146.352 251.424 146.385 251.407 146.414C251.125 146.912 250.455 147.763 249.305 147.417C248.563 147.192 248.282 146.43 248.178 145.957C248.17 145.924 248.172 145.89 248.184 145.858C248.195 145.826 248.216 145.799 248.243 145.778C248.269 145.758 248.301 145.746 248.335 145.743C248.368 145.74 248.402 145.747 248.432 145.763Z" fill="white"/>
<path d="M248.378 141.937C248.607 141.937 248.793 141.751 248.793 141.522C248.793 141.292 248.607 141.106 248.378 141.106C248.148 141.106 247.962 141.292 247.962 141.522C247.962 141.751 248.148 141.937 248.378 141.937Z" fill="#0C0C0C"/>
<path d="M252.372 142.636C252.602 142.636 252.788 142.45 252.788 142.221C252.788 141.991 252.602 141.805 252.372 141.805C252.143 141.805 251.957 141.991 251.957 142.221C251.957 142.45 252.143 142.636 252.372 142.636Z" fill="#0C0C0C"/>
<path d="M239.995 172.789H240.003C240.02 172.786 240.036 172.777 240.046 172.764C240.056 172.75 240.061 172.733 240.058 172.716L239.323 165.313C239.322 165.305 239.32 165.297 239.316 165.289C239.311 165.282 239.306 165.276 239.299 165.271C239.292 165.265 239.284 165.262 239.276 165.26C239.268 165.258 239.259 165.257 239.251 165.259C239.243 165.26 239.235 165.263 239.227 165.267C239.22 165.271 239.214 165.277 239.209 165.283C239.204 165.29 239.2 165.298 239.198 165.306C239.196 165.314 239.195 165.323 239.196 165.331L239.931 172.734C239.933 172.749 239.941 172.763 239.953 172.773C239.965 172.783 239.98 172.789 239.995 172.789Z" fill="#0C0C0C"/>
<path d="M239.035 167.151H231.534V176.35H239.035V167.151Z" fill="white"/>
<path d="M235.964 171.751C235.964 171.143 236.144 170.549 236.482 170.044C236.819 169.539 237.299 169.146 237.86 168.913C238.422 168.681 239.039 168.62 239.635 168.739C240.231 168.857 240.778 169.15 241.208 169.58C241.637 170.009 241.93 170.557 242.048 171.152C242.166 171.748 242.106 172.366 241.873 172.927C241.64 173.488 241.247 173.968 240.742 174.305C240.236 174.643 239.643 174.823 239.035 174.823C238.221 174.822 237.44 174.498 236.864 173.922C236.288 173.346 235.964 172.565 235.964 171.751ZM237.222 171.751C237.222 172.109 237.328 172.46 237.527 172.758C237.726 173.056 238.01 173.289 238.341 173.426C238.672 173.563 239.037 173.599 239.389 173.529C239.741 173.459 240.064 173.286 240.317 173.033C240.571 172.779 240.744 172.456 240.814 172.104C240.884 171.753 240.848 171.388 240.711 171.057C240.573 170.725 240.341 170.442 240.043 170.243C239.744 170.043 239.394 169.937 239.035 169.937C238.554 169.938 238.093 170.129 237.753 170.469C237.413 170.809 237.222 171.27 237.222 171.751Z" fill="white"/>
<path d="M238.975 172.889C239 172.733 239.08 172.591 239.199 172.488C239.318 172.385 239.47 172.327 239.628 172.325C239.623 172.319 239.62 172.312 239.618 172.304L239.395 172.256C239.239 172.225 239.099 172.141 238.998 172.019C238.897 171.896 238.841 171.743 238.84 171.584C238.842 171.485 238.865 171.387 238.909 171.297C238.953 171.208 239.016 171.13 239.094 171.068C239.172 171.006 239.263 170.962 239.36 170.939C239.457 170.916 239.557 170.916 239.655 170.937L240.182 171.05C240.182 171.048 240.182 171.047 240.182 171.044C240.183 171.04 240.184 171.036 240.186 171.032C240.049 170.968 239.938 170.859 239.87 170.723C239.803 170.587 239.784 170.432 239.816 170.284C239.873 169.894 240.341 169.766 240.683 169.84L242.048 170.084L241.587 169.779C241.442 169.678 241.34 169.526 241.303 169.353C241.265 169.18 241.295 169 241.385 168.848C241.435 168.771 241.499 168.705 241.575 168.654C241.651 168.603 241.736 168.568 241.826 168.551C241.915 168.534 242.008 168.536 242.097 168.556C242.186 168.575 242.27 168.613 242.344 168.667L247.845 174.962L246.624 174.408C246.245 174.966 245.708 175.397 245.082 175.648C244.456 175.898 243.769 175.956 243.11 175.813L240.127 175.163C239.971 175.132 239.831 175.049 239.729 174.926C239.628 174.804 239.572 174.65 239.571 174.492C239.574 174.349 239.622 174.21 239.708 174.096C239.795 173.982 239.915 173.898 240.053 173.857C240.048 173.847 240.047 173.836 240.048 173.826C240.05 173.815 240.054 173.806 240.06 173.797C240.067 173.789 240.075 173.783 240.085 173.779L239.534 173.66C239.36 173.626 239.206 173.527 239.103 173.384C238.999 173.241 238.953 173.064 238.975 172.889Z" fill="#FFCAB6"/>
<path opacity="0.2" d="M241.178 171.272C241.192 171.269 241.205 171.261 241.214 171.249C241.223 171.238 241.228 171.224 241.228 171.209C241.228 171.194 241.222 171.18 241.213 171.169C241.203 171.158 241.19 171.15 241.176 171.148L240.254 170.992C240.246 170.99 240.237 170.99 240.229 170.992C240.221 170.993 240.213 170.997 240.206 171.002C240.199 171.006 240.193 171.012 240.188 171.02C240.183 171.027 240.18 171.035 240.179 171.043C240.177 171.052 240.178 171.06 240.18 171.068C240.182 171.077 240.185 171.085 240.19 171.091C240.195 171.098 240.202 171.104 240.209 171.108C240.216 171.113 240.225 171.115 240.233 171.116L241.155 171.272C241.162 171.274 241.17 171.274 241.178 171.272Z" fill="#0C0C0C"/>
<path opacity="0.2" d="M240.956 172.575C240.97 172.572 240.983 172.565 240.992 172.553C241.001 172.542 241.006 172.527 241.006 172.513C241.006 172.498 241 172.484 240.991 172.473C240.981 172.462 240.968 172.454 240.954 172.451L239.691 172.228C239.683 172.226 239.674 172.225 239.666 172.227C239.657 172.228 239.649 172.232 239.642 172.236C239.635 172.241 239.629 172.247 239.624 172.254C239.62 172.262 239.616 172.27 239.615 172.278C239.613 172.287 239.614 172.295 239.616 172.304C239.618 172.312 239.621 172.32 239.626 172.327C239.631 172.334 239.638 172.339 239.645 172.344C239.653 172.348 239.661 172.351 239.669 172.352L240.932 172.576C240.94 172.577 240.948 172.577 240.956 172.575Z" fill="#0C0C0C"/>
<path opacity="0.2" d="M240.724 173.989C240.738 173.986 240.751 173.978 240.76 173.966C240.769 173.954 240.774 173.94 240.774 173.925C240.773 173.91 240.768 173.896 240.758 173.885C240.748 173.874 240.735 173.867 240.72 173.864L240.121 173.773C240.105 173.771 240.089 173.776 240.077 173.786C240.064 173.796 240.055 173.81 240.053 173.826C240.051 173.842 240.054 173.858 240.063 173.872C240.073 173.885 240.087 173.894 240.102 173.898L240.701 173.989C240.709 173.991 240.716 173.99 240.724 173.989Z" fill="#0C0C0C"/>
<path d="M271.818 172.111C268.443 176.964 263.593 180.6 257.987 182.478L257.985 182.476C256.74 182.233 244.863 177.543 243.292 177.235L245.011 169.216C249.425 170.094 257.475 173.48 261.915 174.362L258.783 160.162C258.669 159.535 258.681 158.891 258.819 158.269C258.956 157.646 259.215 157.057 259.582 156.536C259.948 156.014 260.414 155.571 260.954 155.231C261.493 154.891 262.094 154.661 262.723 154.556C263.351 154.45 263.995 154.47 264.615 154.615C265.236 154.76 265.822 155.026 266.339 155.399C266.856 155.772 267.294 156.244 267.627 156.787C267.96 157.331 268.182 157.935 268.28 158.565L271.818 172.111Z" fill="#AC3742"/>
<path d="M265.279 175.407C265.295 175.406 265.311 175.4 265.322 175.389C265.334 175.378 265.341 175.363 265.342 175.347C265.343 175.331 265.339 175.315 265.329 175.303C265.319 175.29 265.305 175.282 265.289 175.279L261.951 174.147C261.943 174.145 261.934 174.146 261.926 174.148C261.918 174.15 261.91 174.153 261.903 174.158C261.897 174.163 261.891 174.17 261.887 174.177C261.882 174.184 261.879 174.192 261.878 174.201C261.876 174.218 261.88 174.235 261.89 174.248C261.9 174.262 261.915 174.271 261.932 174.274L265.27 175.406C265.273 175.406 265.276 175.407 265.279 175.407Z" fill="#0C0C0C"/>
<path d="M262.003 174.201C262.004 174.221 261.998 174.241 261.985 174.257C261.978 174.264 261.969 174.269 261.96 174.272C261.95 174.275 261.94 174.275 261.93 174.274L245.118 169.312L243.433 177.205L257.91 182.501C257.865 182.516 257.818 182.531 257.773 182.546C257.741 182.557 257.709 182.568 257.675 182.576L243.339 177.313C243.323 177.308 243.309 177.298 243.3 177.284C243.292 177.269 243.289 177.252 243.292 177.236L245.011 169.216C245.013 169.208 245.017 169.2 245.022 169.194C245.027 169.187 245.034 169.182 245.041 169.178C245.048 169.173 245.056 169.169 245.065 169.168C245.073 169.166 245.082 169.167 245.09 169.169L261.861 174.138L259.963 166.309C259.961 166.293 259.965 166.276 259.975 166.262C259.985 166.249 260 166.24 260.016 166.237C260.025 166.235 260.033 166.235 260.041 166.237C260.05 166.239 260.058 166.242 260.065 166.247C260.072 166.251 260.078 166.258 260.082 166.265C260.087 166.272 260.09 166.28 260.091 166.288L262.003 174.201Z" fill="#0C0C0C"/>
<path d="M42.7816 163.972C42.7659 163.972 42.7504 163.969 42.736 163.963C42.7218 163.957 42.7089 163.948 42.698 163.937C42.6872 163.926 42.6786 163.913 42.6728 163.899C42.6669 163.884 42.664 163.869 42.6641 163.854C42.6642 163.838 42.6673 163.823 42.6733 163.809L47.2761 152.868C47.2882 152.84 47.3112 152.817 47.3401 152.805C47.369 152.793 47.4013 152.794 47.4301 152.806C47.4588 152.818 47.4815 152.841 47.4933 152.87C47.505 152.899 47.5048 152.931 47.4927 152.96L42.8899 163.9C42.8809 163.921 42.8659 163.939 42.8466 163.952C42.8273 163.965 42.8047 163.972 42.7816 163.972Z" fill="#0C0C0C"/>
<path d="M69.8661 164.096H69.8609C69.8455 164.097 69.8301 164.094 69.8156 164.089C69.8011 164.084 69.7878 164.076 69.7764 164.065C69.765 164.055 69.7558 164.042 69.7492 164.028C69.7427 164.014 69.739 163.999 69.7383 163.984L69.2252 152.794C69.2248 152.763 69.2362 152.734 69.2569 152.711C69.2777 152.688 69.3063 152.674 69.337 152.671C69.3525 152.671 69.3679 152.673 69.3824 152.678C69.397 152.683 69.4103 152.692 69.4217 152.702C69.4331 152.712 69.4424 152.725 69.4489 152.739C69.4555 152.753 69.4592 152.768 69.4599 152.783L69.9729 163.973C69.9745 164.003 69.9642 164.033 69.9443 164.056C69.9243 164.079 69.8963 164.093 69.8661 164.096Z" fill="#0C0C0C"/>
</svg>
