<svg width="25" height="25" viewBox="0 0 25 25" fill="none" xmlns="http://www.w3.org/2000/svg">
<path d="M14.75 8H4.25C4.05109 8 3.86032 7.92098 3.71967 7.78033C3.57902 7.63968 3.5 7.44891 3.5 7.25V4.25C3.5 4.05109 3.57902 3.86032 3.71967 3.71967C3.86032 3.57902 4.05109 3.5 4.25 3.5H14.75C14.9489 3.5 15.1397 3.57902 15.2803 3.71967C15.421 3.86032 15.5 4.05109 15.5 4.25V7.25C15.5 7.44891 15.421 7.63968 15.2803 7.78033C15.1397 7.92098 14.9489 8 14.75 8ZM5 6.5H14V4.955H5V6.5Z" fill="#00214E"/>
<path d="M14.75 9.56006H4.25C4.05109 9.56006 3.86032 9.63908 3.71967 9.77973C3.57902 9.92038 3.5 10.1111 3.5 10.3101V13.2501C3.5 13.449 3.57902 13.6397 3.71967 13.7804C3.86032 13.921 4.05109 14.0001 4.25 14.0001H12.77L15.5 11.2251V10.3101C15.5 10.1111 15.421 9.92038 15.2803 9.77973C15.1397 9.63908 14.9489 9.56006 14.75 9.56006ZM14 12.5001H5V11.0001H14V12.5001Z" fill="#00214E"/>
<path d="M7.295 22.6325V22.5875L7.535 21.545H2V2H17V9.6875L18.5 8.27V1.25C18.5 1.05109 18.421 0.860322 18.2803 0.71967C18.1397 0.579018 17.9489 0.5 17.75 0.5H1.25C1.05109 0.5 0.860322 0.579018 0.71967 0.71967C0.579018 0.860322 0.5 1.05109 0.5 1.25V22.25C0.5 22.4489 0.579018 22.6397 0.71967 22.7803C0.860322 22.921 1.05109 23 1.25 23H7.25C7.25618 22.8766 7.27122 22.7538 7.295 22.6325Z" fill="#00214E"/>
<path d="M15.5 13.3774L14.915 13.9699C15.0601 13.94 15.1931 13.8678 15.2973 13.7623C15.4014 13.6569 15.4719 13.5229 15.5 13.3774Z" fill="#00214E"/>
<path d="M3.5 19.205C3.5 19.4039 3.57902 19.5947 3.71967 19.7353C3.86032 19.876 4.05109 19.955 4.25 19.955H7.88L8.105 18.98L8.2025 18.5675V18.53H5V17H9.755L11.255 15.5H4.25C4.05109 15.5 3.86032 15.579 3.71967 15.7197C3.57902 15.8603 3.5 16.0511 3.5 16.25V19.205Z" fill="#00214E"/>
<path d="M24.1175 11.5025L21.59 8.97496C21.4778 8.86248 21.3446 8.77324 21.1978 8.71235C21.0511 8.65146 20.8938 8.62012 20.735 8.62012C20.5761 8.62012 20.4188 8.65146 20.2721 8.71235C20.1254 8.77324 19.9922 8.86248 19.88 8.97496L9.59749 19.3175L8.74999 22.925C8.71826 23.0806 8.71754 23.241 8.74789 23.3969C8.77823 23.5528 8.83904 23.7012 8.92682 23.8335C9.0146 23.9659 9.12764 24.0797 9.25945 24.1683C9.39127 24.2569 9.53927 24.3186 9.69499 24.35C9.77229 24.3577 9.85018 24.3577 9.92749 24.35C10.0194 24.3649 10.1131 24.3649 10.205 24.35L13.8425 23.5475L24.1175 13.25C24.2297 13.1384 24.3188 13.0058 24.3796 12.8597C24.4404 12.7136 24.4717 12.5569 24.4717 12.3987C24.4717 12.2405 24.4404 12.0838 24.3796 11.9377C24.3188 11.7916 24.2297 11.659 24.1175 11.5475V11.5025ZM13.0775 22.1825L10.3325 22.79L11 20.0675L18.71 12.275L20.825 14.39L13.0775 22.1825ZM21.6725 13.5425L19.5575 11.4275L20.75 10.25L22.88 12.38L21.6725 13.5425Z" fill="#00214E"/>
</svg>
