<svg width="18" height="18" viewBox="0 0 18 18" fill="none" xmlns="http://www.w3.org/2000/svg">
<path d="M0.298828 9.24414C0.298828 9.44466 0.370443 9.61654 0.513672 9.75977C0.656901 9.89583 0.825195 9.96387 1.01855 9.96387H8.28027V17.2256C8.28027 17.4189 8.34831 17.5872 8.48438 17.7305C8.6276 17.8737 8.79948 17.9453 9 17.9453C9.20052 17.9453 9.3724 17.8737 9.51562 17.7305C9.65885 17.5872 9.73047 17.4189 9.73047 17.2256V9.96387H16.9707C17.1712 9.96387 17.3431 9.89583 17.4863 9.75977C17.6296 9.61654 17.7012 9.44466 17.7012 9.24414C17.7012 9.04362 17.6296 8.87174 17.4863 8.72852C17.3431 8.58529 17.1712 8.51367 16.9707 8.51367H9.73047V1.2627C9.73047 1.06934 9.65885 0.901042 9.51562 0.757812C9.3724 0.614583 9.20052 0.542969 9 0.542969C8.79948 0.542969 8.6276 0.614583 8.48438 0.757812C8.34831 0.901042 8.28027 1.06934 8.28027 1.2627V8.51367H1.01855C0.825195 8.51367 0.656901 8.58529 0.513672 8.72852C0.370443 8.87174 0.298828 9.04362 0.298828 9.24414Z" fill="#F3B21F"/>
</svg>
