<svg width="46" height="26" viewBox="0 0 46 26" fill="none" xmlns="http://www.w3.org/2000/svg">
<path d="M14.56 22.1867C16.6661 22.1867 18.3734 20.4794 18.3734 18.3733C18.3734 16.2673 16.6661 14.56 14.56 14.56C12.454 14.56 10.7467 16.2673 10.7467 18.3733C10.7467 20.4794 12.454 22.1867 14.56 22.1867Z" fill="#00214E"/>
<path d="M10.3133 18.3733C10.3133 17.1302 10.8968 16.0365 11.7866 15.341C11.1528 14.8364 10.3762 14.5619 9.57664 14.56C8.59976 14.56 7.66289 14.9618 6.97213 15.6769C6.28137 16.392 5.89331 17.362 5.89331 18.3733C5.89331 19.3847 6.28137 20.3546 6.97213 21.0698C7.66289 21.7849 8.59976 22.1867 9.57664 22.1867C10.3762 22.1848 11.1528 21.9103 11.7866 21.4057C11.3304 21.0535 10.9597 20.5961 10.7039 20.0697C10.4482 19.5434 10.3145 18.9625 10.3133 18.3733Z" fill="#00214E"/>
<rect x="0.5" y="0.5" width="44.0667" height="25" rx="4.5" stroke="#00214E"/>
<rect x="21.4933" y="18.0267" width="7.28" height="1.04" rx="0.52" fill="#00214E"/>
<rect x="30.5066" y="18.0267" width="7.28" height="1.04" rx="0.52" fill="#00214E"/>
<rect x="1" y="5" width="44" height="3" fill="#00214E"/>
</svg>
