<svg width="26" height="27" viewBox="0 0 26 27" fill="none" xmlns="http://www.w3.org/2000/svg">
<path fill-rule="evenodd" clip-rule="evenodd" d="M7.062 1.827C3.134 3.934 0 9.114 0 13.5C0 20.157 6.59 27 13 27C19.41 27 26 20.157 26 13.5C26 6.843 19.41 0 13 0C11.608 0 8.936 0.822 7.062 1.827ZM19.545 9.455C24.938 14.847 21.134 24 13.5 24C8.623 24 5 20.377 5 15.5C5 7.866 14.153 4.062 19.545 9.455ZM19.015 13.027C18.994 16.525 16.328 20 13.666 20C10.614 20 7.225 17.44 6.705 14.741C6.342 12.861 6.25 12.951 6.136 15.295C5.964 18.824 9.956 23 13.5 23C18.653 23 22.692 16.165 20 12C19.233 10.814 19.027 11.028 19.015 13.027Z" fill="black"/>
</svg>
