<svg width="22" height="23" viewBox="0 0 22 23" fill="none" xmlns="http://www.w3.org/2000/svg">
<path d="M11 22.0186C16.8975 22.0186 21.7744 17.1416 21.7744 11.2441C21.7744 5.33594 16.8975 0.469727 10.9893 0.469727C5.0918 0.469727 0.225586 5.33594 0.225586 11.2441C0.225586 17.1416 5.10254 22.0186 11 22.0186ZM11 20.6221C5.80078 20.6221 1.62207 16.4326 1.62207 11.2441C1.62207 6.04492 5.80078 1.85547 10.9893 1.85547C16.1885 1.85547 20.3779 6.04492 20.3887 11.2441C20.3887 16.4326 16.1992 20.6221 11 20.6221ZM10.9893 17.292C11.2363 17.292 11.4189 17.1201 11.4189 16.8623V16.0566C13.127 15.917 14.3838 14.9287 14.3838 13.4033C14.3838 12.0176 13.4707 11.1797 11.6445 10.8252L11.4189 10.7715V7.53809C12.332 7.65625 12.998 8.19336 13.1807 8.98828C13.2666 9.26758 13.4277 9.42871 13.707 9.42871C14.0078 9.42871 14.2227 9.22461 14.2227 8.91309C14.2227 8.81641 14.2012 8.71973 14.1797 8.6123C13.9111 7.48438 12.8154 6.66797 11.4189 6.53906V5.79785C11.4189 5.54004 11.2363 5.36816 10.9893 5.36816C10.7422 5.36816 10.5703 5.54004 10.5703 5.79785V6.53906C8.96973 6.68945 7.79883 7.69922 7.79883 9.0957C7.79883 10.3848 8.69043 11.1797 10.4521 11.5879L10.5703 11.6201V15.0684C9.47461 14.9395 8.76562 14.3271 8.61523 13.4785C8.5293 13.1777 8.35742 13.0273 8.08887 13.0273C7.78809 13.0273 7.58398 13.2422 7.58398 13.5537C7.58398 13.6504 7.60547 13.7471 7.62695 13.8545C7.90625 15.0898 9.07715 15.917 10.5703 16.0459V16.8623C10.5703 17.1201 10.7422 17.292 10.9893 17.292ZM10.5703 10.5566L10.4951 10.5352C9.38867 10.2344 8.85156 9.7832 8.85156 9.05273C8.85156 8.2793 9.5498 7.67773 10.5703 7.53809V10.5566ZM11.4189 11.835L11.6553 11.8887C12.8477 12.2002 13.3203 12.6729 13.3203 13.4463C13.3203 14.3164 12.6328 14.9609 11.4189 15.0684V11.835Z" fill="#979797"/>
</svg>
