<svg width="26" height="26" viewBox="0 0 26 26" fill="none" xmlns="http://www.w3.org/2000/svg">
<path d="M13 18.2C15.8719 18.2 18.2 15.8719 18.2 13C18.2 10.1282 15.8719 7.80005 13 7.80005C10.1282 7.80005 7.80005 10.1282 7.80005 13C7.80005 15.8719 10.1282 18.2 13 18.2Z" fill="#545454"/>
<path d="M14.3 2.6897V0H11.7V2.6897C9.41239 2.98179 7.28646 4.02502 5.65574 5.65574C4.02502 7.28646 2.98179 9.41239 2.6897 11.7H0V14.3H2.6897C2.98136 16.5878 4.02446 18.7139 5.65525 20.3447C7.28605 21.9755 9.41222 23.0186 11.7 23.3103V26H14.3V23.3103C16.5879 23.0189 18.7141 21.9758 20.345 20.345C21.9758 18.7141 23.0189 16.5879 23.3103 14.3H26V11.7H23.3103C23.0186 9.41222 21.9755 7.28605 20.3447 5.65525C18.7139 4.02446 16.5878 2.98136 14.3 2.6897ZM13 20.8C8.6983 20.8 5.2 17.3017 5.2 13C5.2 8.6983 8.6983 5.2 13 5.2C17.3017 5.2 20.8 8.6983 20.8 13C20.8 17.3017 17.3017 20.8 13 20.8Z" fill="#545454"/>
</svg>
