<svg width="14" height="14" viewBox="0 0 14 14" fill="none" xmlns="http://www.w3.org/2000/svg">
<circle cx="7" cy="7" r="6.5" stroke="#00214E"/>
<path d="M8.15983 10V9.532H7.25983V5.5H5.84383V5.968H6.76783V9.532H5.84383V10H8.15983ZM7.41583 3.904C7.41583 3.792 7.37583 3.7 7.29583 3.628C7.21583 3.548 7.12383 3.508 7.01983 3.508C6.92383 3.508 6.83583 3.548 6.75583 3.628C6.67583 3.7 6.63583 3.792 6.63583 3.904C6.63583 4.016 6.67583 4.112 6.75583 4.192C6.83583 4.264 6.92383 4.3 7.01983 4.3C7.12383 4.3 7.21583 4.264 7.29583 4.192C7.37583 4.112 7.41583 4.016 7.41583 3.904Z" fill="#00214E"/>
</svg>
