<svg width="25" height="25" viewBox="0 0 25 25" fill="none" xmlns="http://www.w3.org/2000/svg">
<path d="M12.5 0L22.8279 4.6875H24.2185C24.4257 4.6875 24.6244 4.76981 24.7709 4.91632C24.9174 5.06283 24.9997 5.26155 24.9997 5.46875V8.59375C24.9997 8.80095 24.9174 8.99966 24.7709 9.14618C24.6244 9.29269 24.4257 9.375 24.2185 9.375H23.4373V20.3125C23.6117 20.3126 23.7811 20.3712 23.9185 20.4788C24.0558 20.5864 24.1532 20.7369 24.1951 20.9062L24.9763 24.0312C25.0054 24.1463 25.0077 24.2665 24.9832 24.3827C24.9587 24.4988 24.9079 24.6078 24.8348 24.7013C24.7616 24.7948 24.6681 24.8703 24.5613 24.9221C24.4544 24.9739 24.3372 25.0005 24.2185 25H0.781508C0.662809 25.0005 0.545564 24.9739 0.438748 24.9221C0.331932 24.8703 0.238375 24.7948 0.16524 24.7013C0.0921041 24.6078 0.0413278 24.4988 0.0167971 24.3827C-0.00773347 24.2665 -0.00536808 24.1463 0.0237123 24.0312L0.804945 20.9062C0.847066 20.737 0.944498 20.5867 1.08178 20.4791C1.21907 20.3715 1.38834 20.3129 1.56274 20.3125V9.375H0.781508C0.574312 9.375 0.375603 9.29269 0.229093 9.14618C0.0825835 8.99966 0.000275283 8.80095 0.000275283 8.59375V5.46875C0.000275283 5.26155 0.0825835 5.06283 0.229093 4.91632C0.375603 4.76981 0.574312 4.6875 0.781508 4.6875H2.1721L12.5 0ZM5.90171 4.6875H19.0999L12.5 1.5625L5.90171 4.6875ZM3.12521 9.375V20.3125H4.68767V9.375H3.12521ZM6.25014 9.375V20.3125H10.1563V9.375H6.25014ZM11.7188 9.375V20.3125H13.2812V9.375H11.7188ZM14.8437 9.375V20.3125H18.7499V9.375H14.8437ZM20.3123 9.375V20.3125H21.8748V9.375H20.3123ZM23.4373 7.8125V6.25H1.56274V7.8125H23.4373ZM22.8279 21.875H2.1721L1.78149 23.4375H23.2185L22.8279 21.875Z" fill="#00214E"/>
</svg>
