<svg width="19" height="19" viewBox="0 0 19 19" fill="none" xmlns="http://www.w3.org/2000/svg">
<path fill-rule="evenodd" clip-rule="evenodd" d="M9.47598 18.7132C9.0873 18.7132 8.77222 18.3981 8.77222 18.0094V1.11905C8.77222 0.730369 9.0873 0.415283 9.47598 0.415283C9.86466 0.415283 10.1797 0.73037 10.1797 1.11905V18.0094C10.1797 18.3981 9.86466 18.7132 9.47598 18.7132Z" fill="white"/>
<path fill-rule="evenodd" clip-rule="evenodd" d="M0.327127 9.21243C0.327127 8.82375 0.642214 8.50867 1.03089 8.50867L17.9212 8.50867C18.3099 8.50867 18.625 8.82375 18.625 9.21243C18.625 9.60111 18.3099 9.9162 17.9212 9.9162L1.03089 9.91619C0.642214 9.91619 0.327127 9.60111 0.327127 9.21243Z" fill="white"/>
</svg>
