<svg width="67" height="67" viewBox="0 0 67 67" fill="none" xmlns="http://www.w3.org/2000/svg">
<g filter="url(#filter0_d_0_318)">
<path d="M58 31.5C58 46.1355 46.1355 58 31.5 58C16.8645 58 5 46.1355 5 31.5C5 16.8645 16.8645 5 31.5 5C46.1355 5 58 16.8645 58 31.5Z" fill="white"/>
</g>
<path d="M23.0254 34.5153C22.8023 34.072 22.5863 33.623 22.3789 33.1726C21.9725 32.2916 21.5917 31.3893 21.4212 30.4345C20.8684 27.3539 22.4613 23.9949 24.7475 22.0198C28.0014 19.2107 32.6108 18.1493 36.1958 15.657C35.9971 16.8821 35.3423 17.9866 34.3628 18.7489C36.0409 17.4559 41.0411 19.5858 42.6041 20.3844C45.1957 21.6892 47.398 23.6534 48.9897 26.0794C47.3023 25.3934 45.4655 25.1584 43.6598 25.3973C45.0637 26.7571 46.5244 28.2079 47.0558 30.0863C44.5365 28.2704 40.5139 29.1443 38.9794 31.8511C37.9947 33.5846 38.0089 35.6961 37.4164 37.6015C36.7912 39.6192 35.1045 40.9009 33.1209 41.438C31.6261 41.8472 28.6849 42.0319 27.3307 41.1538C26.9201 40.8881 26.6203 40.4817 26.3446 40.081C25.1068 38.3074 23.9975 36.4474 23.0254 34.5153Z" fill="#00214E"/>
<path d="M27.0081 35.0794C27.0081 36.4134 25.9266 37.4949 24.5926 37.4949C23.2585 37.4949 22.177 36.4134 22.177 35.0794C22.177 33.7453 23.2585 32.6638 24.5926 32.6638C25.9266 32.6638 27.0081 33.7453 27.0081 35.0794Z" fill="#FFBAB0"/>
<path d="M27.6985 34.9373C27.6985 36.1929 26.6807 37.2107 25.4251 37.2107C24.1695 37.2107 23.1516 36.1929 23.1516 34.9373C23.1516 33.6817 24.1695 32.6638 25.4251 32.6638C26.6807 32.6638 27.6985 33.6817 27.6985 34.9373Z" fill="#ECAE9E"/>
<path d="M47.5531 52.5895C38.0546 59.9031 24.8059 59.8446 15.3723 52.4474L22.2865 49.2063C22.6158 49.0515 22.9318 48.8699 23.2314 48.6635C23.3223 48.601 23.4133 48.5356 23.4999 48.4674C24.2524 47.8916 24.8718 47.1603 25.3159 46.3232C25.8842 45.2505 26.0718 44.0654 26.0803 42.8576C26.0803 42.4584 26.0718 42.0577 26.0604 41.657C26.049 41.2563 26.032 40.8314 26.0277 40.4179C26.022 39.968 26.0173 39.5176 26.0135 39.0667L26.2977 39.2087L27.0366 39.591L27.379 39.6492L31.3405 40.3227L35.7624 41.0758L35.896 45.6227L35.9514 47.5111L35.9613 47.8308V47.8777L37.6806 48.5768L47.5531 52.5895Z" fill="#FFBAB0"/>
<path d="M35.9487 47.501L35.7299 47.5238C33.5915 47.7112 31.4787 46.9502 29.951 45.4421L26.0606 40.7048C26.0478 40.2928 26.0321 40.8228 26.0279 40.4093C26.0222 39.9593 26.0175 39.5089 26.0137 39.058L26.2979 39.2001L27.0367 39.5823L27.3792 39.6406L31.3407 40.3141L35.7625 41.0672L35.8961 45.6141L35.9487 47.501Z" fill="#ECAE9E"/>
<path d="M25.823 30.5737C25.3799 30.9656 25.0949 31.5057 25.0216 32.0927C24.7246 34.8677 25.7519 38.1429 26.0375 40.9222L31.2125 44.7388C32.9321 46.0233 35.1292 46.4878 37.2215 46.0091C38.0556 45.8116 38.5842 45.6837 38.9607 45.0144C39.6882 43.7356 41.4743 39.3606 41.5908 36.2744C41.6235 35.3977 41.6022 34.062 41.0623 33.3161C40.7994 32.9537 40.6644 32.9452 40.7596 32.4337C40.8576 31.8994 40.9983 31.3708 41.1163 30.8408C41.2876 30.0742 41.3355 29.2852 41.2583 28.5034C41.1802 27.793 41.183 27.1621 41.1077 26.4389C41.0708 26.0879 40.9145 24.5519 40.9145 24.5519C40.0122 25.9103 38.3838 26.6236 36.8777 27.0925C34.8287 27.729 32.6959 28.0402 30.6186 28.5745C29.2417 28.934 27.0151 29.4455 25.823 30.5737Z" fill="#FFBAB0"/>
<path d="M31.9629 32.7151C32.8297 32.7222 32.8297 34.0479 31.9629 34.055H31.9246C31.0564 34.0479 31.0564 32.7222 31.9246 32.7151H31.9629Z" fill="#00214E"/>
<path d="M39.4495 32.3101C40.2551 32.3101 40.2551 33.5463 39.4495 33.5534H39.414C38.6097 33.5463 38.6097 32.3157 39.414 32.3101H39.4495Z" fill="#00214E"/>
<path fill-rule="evenodd" clip-rule="evenodd" d="M35.2234 40.5515C34.19 40.4243 33.2378 39.9266 32.5435 39.1507L32.6526 39.0531C33.3233 39.8025 34.2431 40.2833 35.2413 40.4061L35.2234 40.5515Z" fill="#00214E"/>
<path fill-rule="evenodd" clip-rule="evenodd" d="M33.9313 31.0839C32.6112 30.8876 31.2667 30.9258 29.9599 31.1968L29.9302 31.0534C31.2539 30.7789 32.6157 30.7402 33.9528 30.939L33.9313 31.0839Z" fill="#00214E"/>
<path fill-rule="evenodd" clip-rule="evenodd" d="M40.8088 31.0345C39.9861 30.9614 39.157 31.0188 38.3523 31.2048L38.3193 31.0621C39.1391 30.8727 39.9837 30.8141 40.8218 30.8886L40.8088 31.0345Z" fill="#00214E"/>
<path d="M47.5531 52.5892C38.0546 59.9028 24.8059 59.8443 15.3723 52.4471L22.2865 49.206C22.6158 49.0512 22.9318 48.8697 23.2314 48.6632C23.3223 48.6007 23.4133 48.5354 23.4999 48.4672C26.8462 50.8486 31.413 52.3505 35.3631 50.573C36.3038 50.1467 37.1677 49.459 37.6792 48.5752L47.5531 52.5892Z" fill="#373232"/>
<path fill-rule="evenodd" clip-rule="evenodd" d="M34.0419 37.3153C33.9557 37.0548 34.0724 36.7704 34.3166 36.6454L34.3833 36.7757C34.2034 36.8678 34.1174 37.0774 34.1809 37.2693C34.2444 37.4612 34.4383 37.5782 34.6377 37.5449L34.6618 37.6893C34.3912 37.7346 34.128 37.5758 34.0419 37.3153Z" fill="#00214E"/>
<path fill-rule="evenodd" clip-rule="evenodd" d="M37.0561 35.0065C36.867 34.2059 36.6786 33.4077 36.4688 32.6029L36.6104 32.5659C36.8204 33.3714 37.0098 34.1735 37.1994 34.9762C37.3289 35.5248 37.4585 36.0737 37.5948 36.6241C37.6367 36.7574 37.652 36.8976 37.6398 37.0368L37.6396 37.0393L37.6392 37.0417C37.604 37.2671 37.4522 37.4208 37.2695 37.5265C37.0873 37.6317 36.8656 37.6947 36.6702 37.7371L36.6392 37.594C36.8302 37.5526 37.0341 37.4934 37.1962 37.3997C37.3568 37.3069 37.4676 37.1857 37.4942 37.0215C37.5043 36.9016 37.4908 36.7808 37.4545 36.666L37.4538 36.6638L37.4532 36.6615C37.3158 36.1067 37.1858 35.5561 37.0561 35.0065Z" fill="#00214E"/>
<defs>
<filter id="filter0_d_0_318" x="0" y="0" width="67" height="67" filterUnits="userSpaceOnUse" color-interpolation-filters="sRGB">
<feFlood flood-opacity="0" result="BackgroundImageFix"/>
<feColorMatrix in="SourceAlpha" type="matrix" values="0 0 0 0 0 0 0 0 0 0 0 0 0 0 0 0 0 0 127 0" result="hardAlpha"/>
<feOffset dx="2" dy="2"/>
<feGaussianBlur stdDeviation="3.5"/>
<feComposite in2="hardAlpha" operator="out"/>
<feColorMatrix type="matrix" values="0 0 0 0 0 0 0 0 0 0 0 0 0 0 0 0 0 0 0.1 0"/>
<feBlend mode="normal" in2="BackgroundImageFix" result="effect1_dropShadow_0_318"/>
<feBlend mode="normal" in="SourceGraphic" in2="effect1_dropShadow_0_318" result="shape"/>
</filter>
</defs>
</svg>
