<svg width="48" height="48" viewBox="0 0 48 48" fill="none" xmlns="http://www.w3.org/2000/svg">
<rect width="48" height="48" rx="8" fill="#A181F9" fill-opacity="0.08"/>
<path d="M13.2256 24.2549C13.2256 30.1523 18.1025 35.0293 24 35.0293C29.8975 35.0293 34.7744 30.1523 34.7744 24.2549C34.7744 20.5596 32.8516 17.2725 29.9619 15.3389C29.5967 15.0596 29.1562 15.1562 28.9521 15.4893C28.748 15.833 28.8555 16.2197 29.1885 16.4668C31.7129 18.1318 33.3779 20.9893 33.3887 24.2549C33.3887 29.4541 29.1992 33.6436 24 33.6436C18.8008 33.6436 14.6221 29.4541 14.6221 24.2549C14.6221 19.7324 17.791 15.9834 22.0234 15.0918V16.8535C22.0234 17.4766 22.4531 17.6592 22.958 17.3047L26.2988 14.9629C26.7178 14.6621 26.7285 14.2432 26.2988 13.9424L22.9688 11.6006C22.4531 11.2461 22.0234 11.418 22.0234 12.0518V13.6631C17.0498 14.5977 13.2256 19.0234 13.2256 24.2549ZM19.123 24.2441C19.123 24.6309 19.4131 24.9209 19.832 24.9209H23.3125V28.4121C23.3125 28.8203 23.5918 29.1104 23.9893 29.1104C24.3975 29.1104 24.6982 28.8203 24.6982 28.4121V24.9209H28.1787C28.5869 24.9209 28.877 24.6309 28.877 24.2441C28.877 23.8252 28.5977 23.5352 28.1787 23.5352H24.6982V20.0547C24.6982 19.6357 24.3975 19.3457 23.9893 19.3457C23.5918 19.3457 23.3125 19.6465 23.3125 20.0547V23.5352H19.832C19.4023 23.5352 19.123 23.8252 19.123 24.2441Z" fill="#A181F9"/>
</svg>
