<svg width="48" height="48" viewBox="0 0 48 48" fill="none" xmlns="http://www.w3.org/2000/svg">
<path d="M18.6562 25.2969H24.4893C24.6611 25.2969 24.8008 25.2396 24.9082 25.125C25.0228 25.0104 25.0801 24.8708 25.0801 24.7061V17.1758C25.0801 17.0111 25.0228 16.875 24.9082 16.7676C24.8008 16.653 24.6611 16.5957 24.4893 16.5957C24.3317 16.5957 24.1956 16.653 24.0811 16.7676C23.9665 16.875 23.9092 17.0111 23.9092 17.1758V24.126H18.6562C18.4844 24.126 18.3411 24.1833 18.2266 24.2979C18.1191 24.4124 18.0654 24.5485 18.0654 24.7061C18.0654 24.8708 18.1191 25.0104 18.2266 25.125C18.3411 25.2396 18.4844 25.2969 18.6562 25.2969ZM24.5 35.0186C25.9753 35.0186 27.361 34.7357 28.6572 34.1699C29.9606 33.6113 31.1064 32.8379 32.0947 31.8496C33.083 30.8542 33.86 29.7083 34.4258 28.4121C34.9915 27.1087 35.2744 25.7194 35.2744 24.2441C35.2744 22.7689 34.9915 21.3831 34.4258 20.0869C33.86 18.7835 33.083 17.6377 32.0947 16.6494C31.1064 15.654 29.9606 14.877 28.6572 14.3184C27.3538 13.7526 25.9645 13.4697 24.4893 13.4697C23.014 13.4697 21.6247 13.7526 20.3213 14.3184C19.0251 14.877 17.8828 15.654 16.8945 16.6494C15.9062 17.6377 15.1292 18.7835 14.5635 20.0869C14.0049 21.3831 13.7256 22.7689 13.7256 24.2441C13.7256 25.7194 14.0049 27.1087 14.5635 28.4121C15.1292 29.7083 15.9062 30.8542 16.8945 31.8496C17.89 32.8379 19.0358 33.6113 20.332 34.1699C21.6354 34.7357 23.0247 35.0186 24.5 35.0186ZM24.5 33.6328C23.1966 33.6328 21.9792 33.3893 20.8477 32.9023C19.7161 32.4154 18.7207 31.7422 17.8613 30.8828C17.002 30.0234 16.3288 29.028 15.8418 27.8965C15.362 26.7578 15.1221 25.5404 15.1221 24.2441C15.1221 22.9479 15.362 21.734 15.8418 20.6025C16.3288 19.4639 16.9984 18.4648 17.8506 17.6055C18.71 16.7389 19.7054 16.0658 20.8369 15.5859C21.9756 15.099 23.193 14.8555 24.4893 14.8555C25.7926 14.8555 27.0101 15.099 28.1416 15.5859C29.2731 16.0658 30.2686 16.7389 31.1279 17.6055C31.9945 18.4648 32.6712 19.4639 33.1582 20.6025C33.6452 21.734 33.8887 22.9479 33.8887 24.2441C33.8887 25.5404 33.6452 26.7578 33.1582 27.8965C32.6784 29.028 32.0088 30.0234 31.1494 30.8828C30.29 31.7422 29.291 32.4154 28.1523 32.9023C27.0137 33.3893 25.7962 33.6328 24.5 33.6328Z" fill="#0ABB85"/>
<rect width="48" height="48" rx="8" fill="#0ABB85" fill-opacity="0.08"/>
</svg>
