<svg width="22" height="25" viewBox="0 0 22 25" fill="none" xmlns="http://www.w3.org/2000/svg">
<path d="M0.225586 13.2549C0.225586 19.1523 5.10254 24.0293 11 24.0293C16.8975 24.0293 21.7744 19.1523 21.7744 13.2549C21.7744 9.55957 19.8516 6.27246 16.9619 4.33887C16.5967 4.05957 16.1562 4.15625 15.9521 4.48926C15.748 4.83301 15.8555 5.21973 16.1885 5.4668C18.7129 7.13184 20.3779 9.98926 20.3887 13.2549C20.3887 18.4541 16.1992 22.6436 11 22.6436C5.80078 22.6436 1.62207 18.4541 1.62207 13.2549C1.62207 8.73242 4.79102 4.9834 9.02344 4.0918V5.85352C9.02344 6.47656 9.45312 6.65918 9.95801 6.30469L13.2988 3.96289C13.7178 3.66211 13.7285 3.24316 13.2988 2.94238L9.96875 0.600586C9.45312 0.246094 9.02344 0.417969 9.02344 1.05176V2.66309C4.0498 3.59766 0.225586 8.02344 0.225586 13.2549ZM6.12305 13.2441C6.12305 13.6309 6.41309 13.9209 6.83203 13.9209H10.3125V17.4121C10.3125 17.8203 10.5918 18.1104 10.9893 18.1104C11.3975 18.1104 11.6982 17.8203 11.6982 17.4121V13.9209H15.1787C15.5869 13.9209 15.877 13.6309 15.877 13.2441C15.877 12.8252 15.5977 12.5352 15.1787 12.5352H11.6982V9.05469C11.6982 8.63574 11.3975 8.3457 10.9893 8.3457C10.5918 8.3457 10.3125 8.64648 10.3125 9.05469V12.5352H6.83203C6.40234 12.5352 6.12305 12.8252 6.12305 13.2441Z" fill="#A181F9"/>
</svg>
