<svg width="51" height="52" viewBox="0 0 51 52" fill="none" xmlns="http://www.w3.org/2000/svg">
<path fill-rule="evenodd" clip-rule="evenodd" d="M0 9.37037C0 4.19526 4.19526 0 9.37037 0H17.1852C18.1261 0 18.8889 0.762774 18.8889 1.7037C18.8889 2.64463 18.1261 3.40741 17.1852 3.40741H11.3333C7.16052 3.40741 3.77778 6.79014 3.77778 10.963V16.8519C3.77778 17.8951 2.93209 18.7407 1.88889 18.7407C0.845684 18.7407 0 17.8951 0 16.8518V9.37037Z" fill="#00214E"/>
<path fill-rule="evenodd" clip-rule="evenodd" d="M51 41.7407C51 46.9158 46.8047 51.1111 41.6296 51.1111L33.8148 51.1111C32.8739 51.1111 32.1111 50.3483 32.1111 49.4074C32.1111 48.4664 32.8739 47.7037 33.8148 47.7037L39.6667 47.7037C43.8395 47.7037 47.2222 44.3209 47.2222 40.1481L47.2222 34.2592C47.2222 33.216 48.0679 32.3703 49.1111 32.3703C50.1543 32.3703 51 33.216 51 34.2592L51 41.7407Z" fill="#00214E"/>
<path fill-rule="evenodd" clip-rule="evenodd" d="M51 9.37037C51 4.19526 46.8047 0 41.6296 0H33.8148C32.8739 0 32.1111 0.762774 32.1111 1.7037C32.1111 2.64463 32.8739 3.40741 33.8148 3.40741H39.6667C43.8395 3.40741 47.2222 6.79014 47.2222 10.963V16.8519C47.2222 17.8951 48.0679 18.7407 49.1111 18.7407C50.1543 18.7407 51 17.8951 51 16.8518V9.37037Z" fill="#00214E"/>
<path fill-rule="evenodd" clip-rule="evenodd" d="M8.19184e-07 41.7407C3.66761e-07 46.9159 4.19526 51.1111 9.37037 51.1111L17.1852 51.1111C18.1261 51.1111 18.8889 50.3483 18.8889 49.4074C18.8889 48.4665 18.1261 47.7037 17.1852 47.7037L11.3333 47.7037C7.16052 47.7037 3.77778 44.321 3.77778 40.1482L3.77778 34.2593C3.77778 33.2161 2.9321 32.3704 1.88889 32.3704C0.845686 32.3704 1.56444e-06 33.2161 1.47324e-06 34.2593L8.19184e-07 41.7407Z" fill="#00214E"/>
<path d="M0 25.5556C0 24.6146 0.762774 23.8519 1.7037 23.8519H49.2963C50.2372 23.8519 51 24.6146 51 25.5556C51 26.4965 50.2372 27.2593 49.2963 27.2593H1.7037C0.762774 27.2593 0 26.4965 0 25.5556Z" fill="#00214E"/>
</svg>
