<svg width="74" height="74" viewBox="0 0 74 74" fill="none" xmlns="http://www.w3.org/2000/svg">
<g filter="url(#filter0_d_0_45)">
<circle cx="37" cy="33" r="30" fill="#282460"/>
</g>
<path fill-rule="evenodd" clip-rule="evenodd" d="M35.2191 22.9522C36.0198 21.9514 37.542 21.9514 38.3426 22.9522L44.937 31.1952C45.2821 31.6265 45.2121 32.2558 44.7809 32.6008C44.3496 32.9458 43.7203 32.8759 43.3753 32.4446L38.3426 26.1537C37.542 25.1529 36.0198 25.1529 35.2191 26.1537L30.1864 32.4446C29.8414 32.8759 29.2121 32.9458 28.7809 32.6008C28.3496 32.2558 28.2797 31.6265 28.6247 31.1952L35.2191 22.9522Z" fill="white"/>
<path fill-rule="evenodd" clip-rule="evenodd" d="M36.7808 44.6008C36.2285 44.6008 35.7808 44.1531 35.7808 43.6008L35.7808 24.6008C35.7808 24.0485 36.2285 23.6008 36.7808 23.6008C37.333 23.6008 37.7808 24.0485 37.7808 24.6008L37.7808 43.6008C37.7808 44.1531 37.333 44.6008 36.7808 44.6008Z" fill="white"/>
<defs>
<filter id="filter0_d_0_45" x="0" y="0" width="74" height="74" filterUnits="userSpaceOnUse" color-interpolation-filters="sRGB">
<feFlood flood-opacity="0" result="BackgroundImageFix"/>
<feColorMatrix in="SourceAlpha" type="matrix" values="0 0 0 0 0 0 0 0 0 0 0 0 0 0 0 0 0 0 127 0" result="hardAlpha"/>
<feOffset dy="4"/>
<feGaussianBlur stdDeviation="3.5"/>
<feComposite in2="hardAlpha" operator="out"/>
<feColorMatrix type="matrix" values="0 0 0 0 0 0 0 0 0 0 0 0 0 0 0 0 0 0 0.25 0"/>
<feBlend mode="normal" in2="BackgroundImageFix" result="effect1_dropShadow_0_45"/>
<feBlend mode="normal" in="SourceGraphic" in2="effect1_dropShadow_0_45" result="shape"/>
</filter>
</defs>
</svg>
