<svg width="48" height="48" viewBox="0 0 48 48" fill="none" xmlns="http://www.w3.org/2000/svg">
<rect width="48" height="48" rx="8" fill="#F3B21F" fill-opacity="0.08"/>
<path d="M15.2988 24.2441C15.2988 24.4447 15.3704 24.6165 15.5137 24.7598C15.6569 24.8958 15.8252 24.9639 16.0186 24.9639H23.2803V32.2256C23.2803 32.4189 23.3483 32.5872 23.4844 32.7305C23.6276 32.8737 23.7995 32.9453 24 32.9453C24.2005 32.9453 24.3724 32.8737 24.5156 32.7305C24.6589 32.5872 24.7305 32.4189 24.7305 32.2256V24.9639H31.9707C32.1712 24.9639 32.3431 24.8958 32.4863 24.7598C32.6296 24.6165 32.7012 24.4447 32.7012 24.2441C32.7012 24.0436 32.6296 23.8717 32.4863 23.7285C32.3431 23.5853 32.1712 23.5137 31.9707 23.5137H24.7305V16.2627C24.7305 16.0693 24.6589 15.901 24.5156 15.7578C24.3724 15.6146 24.2005 15.543 24 15.543C23.7995 15.543 23.6276 15.6146 23.4844 15.7578C23.3483 15.901 23.2803 16.0693 23.2803 16.2627V23.5137H16.0186C15.8252 23.5137 15.6569 23.5853 15.5137 23.7285C15.3704 23.8717 15.2988 24.0436 15.2988 24.2441Z" fill="#F3B21F"/>
</svg>
